<?xml version="1.0" encoding="utf-8"?>
<!-- Generator: Adobe Illustrator 27.5.0, SVG Export Plug-In . SVG Version: 6.00 Build 0)  -->
<svg version="1.1" xmlns="http://www.w3.org/2000/svg" xmlns:xlink="http://www.w3.org/1999/xlink" x="0px" y="0px"
	 viewBox="0 0 1600 600" style="enable-background:new 0 0 1600 600;" xml:space="preserve">
<style type="text/css">
	.st0{fill:#C9FFF0;stroke:#231F20;stroke-miterlimit:10;}
	.st1{fill:none;}
	.st2{fill:#6BB748;}
	.st3{font-family:'Georgia';}
	.st4{font-size:155.6742px;}
	.st5{fill:#ABD8AD;}
	.st6{fill:#7FB283;}
	.st7{fill:#55885B;}
	.st8{fill:#78DDF4;}
	.st9{fill:#A7DB27;}
	.st10{fill:#C3E84D;}
	.st11{fill:#96CF50;}
	.st12{opacity:0.35;fill:#79AA33;}
	.st13{opacity:0.57;fill:#9DECF9;}
	.st14{opacity:0.32;fill:#4EB3C4;}
	.st15{fill:#79AB2C;}
	.st16{fill:#648E21;}
	.st17{fill:#B79030;}
	.st18{fill:#A37819;}
	.st19{fill:#76A631;}
	.st20{fill:#618B1D;}
	.st21{fill:#A7DB27;stroke:#231F20;stroke-width:0.5;stroke-miterlimit:10;}
	.st22{fill:url(#SVGID_1_);stroke:#231F20;stroke-width:0.5;stroke-miterlimit:10;}
	
		.st23{fill:url(#SVGID_00000096052915675261904380000017668150550196314045_);stroke:#231F20;stroke-width:0.5;stroke-miterlimit:10;}
	
		.st24{fill:url(#SVGID_00000047026588491372914620000016326554890996971432_);stroke:#231F20;stroke-width:0.5;stroke-miterlimit:10;}
	
		.st25{fill:url(#SVGID_00000010287952922695987350000018281743162310681781_);stroke:#231F20;stroke-width:0.5;stroke-miterlimit:10;}
	
		.st26{fill:url(#SVGID_00000157271106949083363240000016347695105536189887_);stroke:#231F20;stroke-width:0.5;stroke-miterlimit:10;}
	
		.st27{fill:url(#SVGID_00000132077820401258123580000002254298905336504254_);stroke:#231F20;stroke-width:0.5;stroke-miterlimit:10;}
	
		.st28{fill:url(#SVGID_00000045577971056778503790000005111277357970016182_);stroke:#231F20;stroke-width:0.5;stroke-miterlimit:10;}
	
		.st29{fill:url(#SVGID_00000087399405458777692770000010626232317479892870_);stroke:#231F20;stroke-width:0.5;stroke-miterlimit:10;}
	
		.st30{fill:url(#SVGID_00000073716739880939182680000013730051707374780068_);stroke:#231F20;stroke-width:0.5;stroke-miterlimit:10;}
	
		.st31{fill:url(#SVGID_00000134219765750116926030000009539203020417851307_);stroke:#231F20;stroke-width:0.5;stroke-miterlimit:10;}
</style>
<g id="Background">
	<rect x="3.07" y="52.08" class="st0" width="1594.51" height="546.23"/>
	<rect x="570.55" y="70.27" class="st1" width="981.09" height="185.57"/>
	<text transform="matrix(1.0947 0 0 1 678.9964 187.963)" class="st2 st3 st4">FII ECOol</text>
	<path class="st1" d="M1594.91,489.95c0.93,0.14,1.83,0.28,2.67,0.4v-0.93l-0.04,0.54L1594.91,489.95z"/>
	<path class="st1" d="M1597.58,370.77v-1.98c-2.35,0.09-4.7,0.19-7.04,0.31C1592.9,369.65,1595.27,370.18,1597.58,370.77z"/>
	<path class="st5" d="M1564.18,300.91c-74.36-24.46-132.54-64.72-200.12-95.93c-16.38-7.58-33.47-14.53-51.26-20.57
		c-1.51-0.51-3.07-0.96-4.6-1.44c0.05,0,0.1,0,0.14,0.01c-1.44-0.46-2.91-0.89-4.36-1.33c-4.87-1.48-9.76-2.92-14.65-4.39
		c-7.77-2.32-15.46-5.12-23.86-6.34c-7.68-1.14-15.88,5.45-23.34,6.54c-5.75,0.85-11.2-2.71-15.53-4.64
		c-5.22-2.35-9.29-3.32-15.75-2.59c-4.58,0.53-9.04,1.75-13.42,2.8c-10.61,2.57-21.46,4.6-32.38,6.49
		c-21.76,3.76-41.58,8.67-60.81,16.53c-18.56,7.63-35.54,16.82-54.15,24.32c-17.44,7.03-35.66,13.14-54.71,18.09
		c-10.21,2.66-20.92,4.47-31.01,7.38c-10.1,2.96-19.71,6.65-29.24,10.31c-15.84,6.04-31.48,11.25-48.59,15.45
		c-18.32,4.48-35.73,10.44-53.83,15.33c-15.62,4.18-29.42,6.7-46.11,4.36c-8.12-1.15-15.86-2.34-24.23-1.91
		c-8.59,0.47-17.15,2.35-25.41,3.92c-12.55,2.39-22.99-0.82-34.79-3.7c-19.6-4.79-39.61-8.82-59.71-12.61
		c-5.7-1.1-11.45-2.15-17.18-3.16c-11.4-0.75-22.82-1.13-34.24-1.2l0.08,0c-0.06,0-0.11,0-0.16,0c-5.27-0.03-10.55,0.03-15.82,0.15
		c-1.38,0.02-2.76,0.02-4.15,0.06c-6.34,0.18-12.67,0.45-19.01,0.83c-38.91,2.35-110.38,9.62-191.87,18.72
		c34.36,5.55,71.19,11.91,84.63,18.28c22.81,10.89,38.47,7.07,69.81,8.85c31.38,1.79,91.94-22.3,105.87-20.88
		c21.63,2.16,66.75,19.16,87.45,14.35c27.63-6.36,29.63-7.17,74.68-8.62c45.07-1.5,52.4-8.08,78.26-8.99
		c25.89-0.97,84.04,0.55,112.49-7.16c28.43-7.7,53.87-14.31,69.6-8.71c15.72,5.61,60.86,22.9,91.22,24.65
		c30.48,1.76,65.93,10.59,96.42,21.07c30.44,10.54,68.01,17.57,94.65,19.16c26.59,1.58,67.92-1.26,111.8,9.14
		c43.93,10.36,54.44,10.77,73.73,8.35c19.32-2.48,31.48,0.53,43.75,2.85c8.59,1.68,30.85,5.1,43.09,6.95v-0.88
		c-2.32-0.59-4.68-1.13-7.04-1.67c2.34-0.12,4.69-0.22,7.04-0.31v-57.71C1586.31,307.89,1575.16,304.52,1564.18,300.91z"/>
	<path class="st6" d="M300.08,282.18c-31.04-6.78-66.55-26.25-80.7-28.63c-14.21-2.38-103.39,36.26-137.44,41.28
		c-34.1,5.03-78.66-0.99-78.66-0.99l-0.2,41.02c92.05-11.49,235.63-29,357.05-42.48C335.88,288.47,312.87,284.98,300.08,282.18z"/>
	<path class="st6" d="M1588.46,385.53c-54.27,1.49-108.02-0.61-162.28-1.76c-54.9-1.19-109.39-1.03-164.17-4.35
		c-6.86-0.41-13.73-0.81-20.6-1.2h0.05c-0.95-0.06-1.9-0.11-2.85-0.17c-7.29-0.42-14.57-0.86-21.85-1.3
		c-2.25-0.14-4.5-0.28-6.74-0.42c-8.99-0.57-17.98-1.18-26.94-1.89c-20-1.6-43.26-0.27-62.07-5.38c-1.49-0.39-6.17-2.7-4.5-4.11
		c6.28-5.24,22.18-5.97,33.07-7.62c-18.85-1.01-37.73-3.2-56.61-3.98c-25.33-1.06-51.33,0.06-76.73,0.06
		c-10.02,0.01-20.08,0.03-30.09,0.03c-7.83,0.4-15.61,0.8-23.41,1.22c7.34,1.58,14.71,2.97,21.62,5.31
		c8.78,2.99,17.75,4.01,24.88,8.5c0.6,0.4,2.26,1.8,1.29,2.43c-6.35,4.11-16.61,4.29-24.93,5.18c-11.87,1.22-23.44,2.42-35.5,3.02
		c-79.73,3.96-159.36,7.94-239.38,7.88c0.07,0.01,0.14,0.02,0.22,0.03c-8.07,0-16.17-0.04-24.28-0.12
		c-58.51-0.66-117.25-4-175.75-5.77c-30.44-0.89-60.89-1.12-91.21-2.9c-14.11-0.83-29-2.92-43.11-2.95
		c-8.11-0.01-15.93-0.35-23.49-2.26c-1.65-0.44-6.77-3.21-4.01-4.39c1.15-0.5,2.45-0.89,3.77-1.28
		c-74.35,0.61-241.91-0.38-349.51-5.45L2.75,485.45l1.16,0l0.33-72.31c0,0,44.37,6,78.32,0.96c33.91-5.03,122.69-43.72,136.84-41.34
		c14.09,2.38,49.45,21.84,80.37,28.61c30.88,6.78,121.57,17.58,144.47,28.41c22.83,10.88,38.5,7.05,69.86,8.83
		c31.4,1.78,91.96-22.33,105.91-20.92c21.64,2.15,66.78,19.14,87.49,14.31c27.64-6.37,29.64-7.18,74.71-8.65
		c45.08-1.52,52.41-8.1,78.28-9.02c25.9-0.98,84.08,0.51,112.54-7.21c28.44-7.71,53.89-14.33,69.63-8.75
		c15.72,5.6,60.89,22.88,91.27,24.62c30.49,1.75,65.96,10.57,96.47,21.04c30.46,10.52,68.05,17.54,94.7,19.13
		c26.6,1.57,67.95-1.29,111.85,9.1c43.96,10.34,54.46,10.75,73.77,8.32c19.33-2.49,31.49,0.52,43.77,2.83
		c8,1.56,27.85,4.63,40.44,6.53l2.64,0.01l0.04-0.54V385.52C1593.48,385.59,1589.91,385.49,1588.46,385.53z"/>
	<path class="st6" d="M352.64,367.35c-1.32,0.39-2.63,0.78-3.77,1.28c-2.76,1.18,2.36,3.95,4.01,4.39
		c7.56,1.91,15.38,2.25,23.5,2.26c14.11,0.03,29.01,2.12,43.11,2.95c30.32,1.78,60.78,2.01,91.22,2.9
		c58.51,1.77,117.27,5.11,175.78,5.77c8.1,0.08,16.21,0.12,24.28,0.12c-0.07-0.01-0.14-0.01-0.22-0.03
		c80.04,0.06,159.68-3.92,239.43-7.88c12.06-0.6,23.63-1.8,35.51-3.02c8.32-0.89,18.58-1.07,24.93-5.18
		c0.97-0.63-0.69-2.03-1.29-2.43c-7.13-4.49-16.11-5.51-24.89-8.5c-6.91-2.34-14.29-3.74-21.63-5.31c7.8-0.42,15.59-0.82,23.41-1.22
		c10.01,0,20.07-0.02,30.09-0.03c25.4,0,51.41-1.13,76.74-0.06c18.89,0.78,37.77,2.97,56.62,3.98c-10.89,1.65-26.8,2.38-33.08,7.62
		c-1.67,1.41,3.02,3.72,4.5,4.11c18.82,5.11,42.08,3.79,62.08,5.38c8.96,0.7,17.95,1.31,26.94,1.89c2.24,0.15,4.49,0.28,6.74,0.42
		c7.28,0.44,14.56,0.88,21.85,1.3c0.95,0.06,1.9,0.11,2.85,0.17h-0.05c6.87,0.39,13.74,0.78,20.6,1.2
		c54.79,3.32,109.29,3.16,164.2,4.35c54.27,1.15,108.03,3.25,162.31,1.76c1.45-0.04,5.02,0.05,9.12-0.01v-13.87
		c-12.25-1.85-34.54-5.27-43.14-6.95c-12.28-2.32-24.45-5.33-43.79-2.85c-19.32,2.42-29.83,2.01-73.81-8.35
		c-43.92-10.41-85.29-7.56-111.91-9.14c-26.67-1.6-64.27-8.63-94.75-19.16c-30.52-10.48-66.01-19.31-96.51-21.07
		c-30.39-1.76-75.58-19.05-91.31-24.65c-15.74-5.6-41.21,1.02-69.67,8.71c-28.48,7.71-86.69,6.19-112.6,7.16
		c-25.89,0.91-33.22,7.48-78.33,8.99c-45.1,1.45-47.1,2.26-74.76,8.62c-20.72,4.82-65.88-12.19-87.53-14.35
		c-13.94-1.42-74.56,22.67-105.97,20.88c-31.38-1.78-47.05,2.04-69.88-8.85c-13.46-6.37-50.33-12.73-84.72-18.28
		c-120.96,13.49-264,31-355.71,42.48L3.07,361.9C110.69,366.97,278.29,367.96,352.64,367.35z"/>
	<path class="st7" d="M3.28,477.84l-0.54,119.3l1594.84,3.91V482.74c-0.85-0.13-1.74-0.26-2.67-0.4L3.28,477.84z"/>
	<path class="st7" d="M1552.38,483.42c-12.27-2.31-24.43-5.32-43.74-2.83c-19.29,2.43-29.79,2.02-73.73-8.32
		c-43.87-10.39-85.2-7.53-111.78-9.1c-26.64-1.59-64.2-8.6-94.65-19.13c-30.49-10.48-65.94-19.29-96.41-21.04
		c-30.36-1.74-75.5-19.02-91.22-24.62c-15.72-5.59-41.16,1.04-69.58,8.75c-28.44,7.72-86.59,6.22-112.47,7.21
		c-25.86,0.91-33.18,7.5-78.23,9.02c-45.05,1.46-47.04,2.27-74.67,8.65c-20.7,4.82-65.81-12.17-87.44-14.31
		c-13.93-1.42-74.47,22.7-105.84,20.92c-31.34-1.78-47,2.05-69.82-8.83c-22.89-10.83-113.53-21.63-144.38-28.41
		c-30.89-6.77-66.23-26.23-80.32-28.61c-14.14-2.38-102.87,36.31-136.76,41.34c-33.93,5.04-78.27-0.96-78.27-0.96l-0.33,72.31
		l1590.05,4.5C1580.22,488.04,1560.38,484.98,1552.38,483.42z"/>
	<g>
		<g>
			<g>
				<g>
					<path class="st8" d="M481.11,201.55c74.42,106.13,47.59,251.71-59.93,325.17c-24.32,16.62-50.69,28.12-77.79,34.74
						c-56.48,13.81-116.16,6.42-167.21-20.04c-32.73-16.96-61.92-41.77-84.43-73.86C42.12,396.77,37.53,308.41,71.9,235.63
						c15.34-32.51,38.46-61.92,68.81-85.27c3.56-2.75,7.22-5.4,10.98-7.96C259.2,68.94,406.69,95.42,481.11,201.55z"/>
					<path class="st8" d="M340.32,183.9c-0.22,68.77-127.7,155.87-22.87,174.68c92.51,16.62-57.11,159.79,11.84,205.86
						c-15.2,2.76-30.57,4.01-45.87,3.81c-30.73-46.09,37.83-167.68,4.12-171.29c-42.82-4.58-54.29-11.53-44.05-86.71
						c10.25-75.17,16.31-93.34-73.25-68.24c-40.28,11.3-58.29-29.61-65.59-57.27c5.24-6.18,10.84-12.14,16.78-17.83
						c-1.03,21.02,6.71,42.03,35.69,40.78c41.87-1.82,136.33-59.88,170.52-46.53C335.66,164.28,340.36,171.31,340.32,183.9z"/>
					<path class="st8" d="M207.45,308.82c-9.71,50.25-0.01,107.53,15.32,139.17c14.05,28.99,14.57,77.6-34.53,99.25
						c-2.6-1.16-5.17-2.38-7.73-3.64c24.38-34.06,32.58-82.74,9.85-144.32c-20.28-54.95,26.37-131.68,1.71-139.33
						C193.87,259.93,216.78,260.55,207.45,308.82z"/>
					<path class="st9" d="M486.15,198.1C563.33,308.16,535.5,459.14,424,535.32c-17.73,12.11-36.5,21.6-55.86,28.56
						c-8.18,2.94-16.45,5.44-24.8,7.47c-100.88-36.19,71.91-195.2-25.88-212.76c-104.83-18.82,22.64-105.91,22.87-174.68
						c0.04-12.59-4.66-19.61-12.67-22.74c-34.19-13.35-128.65,44.71-170.52,46.53c-74.35,3.23-16.5-68.26-12.61-70.92
						c9.37-6.4,19.03-12.07,28.91-17.02c55.6-27.85,118.26-32.93,175.61-17.48C402.82,116.75,451.93,149.31,486.15,198.1z"/>
					<path class="st9" d="M322.92,559.32c-0.95-0.9-1.83-1.83-2.65-2.79C321.1,557.49,321.98,558.42,322.92,559.32z"/>
					<path class="st9" d="M173.53,552.47c-13.94-7.24-27.27-15.78-39.79-25.61c-18.77-14.82-35.72-32.53-50.11-53.04
						c-46.06-65.68-55.7-145.54-33.21-216.27c1.17-3.7,2.44-7.36,3.78-11.02c2.46-6.67,5.22-13.25,8.28-19.7
						c26.5,23.97,67.53,49.71,111.65,35.16c59.31-19.55-7.31,73.53,16.23,137.3c0.97,2.65,1.89,5.27,2.76,7.88
						C214.17,470.48,201.99,519.57,173.53,552.47z"/>
					<path class="st10" d="M327.65,161.16c-34.19-13.35-128.65,44.71-170.52,46.53c-74.35,3.23-16.5-68.26-12.61-70.92
						c9.37-6.4,19.03-12.07,28.91-17.02c-30.38,33.33-56.26,69.84-11.27,58.6C230.54,161.26,314.24,139.76,327.65,161.16z"/>
					<path class="st11" d="M486.15,198.1c38.99,55.6,51.19,121.64,39.33,183.2c-0.44,2.28-0.91,4.55-1.41,6.81
						c-24.32,45.6-61.83,77.64-96.71,99.38c-25.88,16.13-58.97-5.29-54.18-35.14c7.45-46.52,14.81-87.18-1.5-91.84
						c-41.91-11.97-42.39-19.16,3.18-114.96c28.08-59.03-0.07-111.63-25.82-143.3c16.4,4.42,32.36,10.51,47.61,18.24
						c2.77,1.4,5.52,2.86,8.25,4.38C436.29,142.33,464.26,166.89,486.15,198.1z"/>
					<path class="st12" d="M486.15,198.1c38.99,55.6,51.19,121.64,39.33,183.2c-53.63,34.85-90.99-42.61-88.98-108.68
						c2.05-67.3-15.4-116.76-31.6-147.74C436.29,142.33,464.26,166.89,486.15,198.1z"/>
					<path class="st13" d="M340.32,183.9c-0.22,68.77-127.7,155.87-22.87,174.68c22.15,3.98,30.42,15.22,31.12,30.63
						c0.04,0.8,0.06,1.6,0.06,2.43c-0.1,31.86-29.46,80.01-36.6,119.48c-3.01,16.55-2.1,31.57,6.5,43.21c0.36,0.49,0.74,1,1.14,1.48
						c0.2,0.24,0.4,0.48,0.6,0.72c0.82,0.96,1.7,1.89,2.65,2.79c0.39,0.4,0.8,0.78,1.23,1.15c0.25,0.22,0.49,0.44,0.76,0.67
						c0.34,0.28,0.69,0.57,1.04,0.85c0.53,0.42,1.05,0.83,1.61,1.23c0.29,0.21,0.56,0.41,0.86,0.62c0.3,0.2,0.58,0.4,0.88,0.6
						c-15.2,2.76-30.57,4.01-45.87,3.81c-30.73-46.09,37.83-167.68,4.12-171.29c-42.82-4.58-54.29-11.53-44.05-86.71
						c10.25-75.17,16.31-93.34-73.25-68.24c-40.28,11.3-58.29-29.61-65.59-57.27c5.24-6.18,10.84-12.14,16.78-17.83
						c-0.13,2.54-0.12,5.07,0.04,7.57c-5.57,17.57-1.59,34.41,34.32,33.25c0.43-0.01,0.89-0.02,1.34-0.04
						c41.87-1.82,136.33-59.88,170.52-46.53C335.66,164.28,340.36,171.31,340.32,183.9z"/>
					<g>
						<path class="st14" d="M340.32,183.9c-0.06,16.04-7.02,33.07-16.36,49.99c-8.3-57.72-132.68-19.09-157.56-13.32
							c-25.61,5.92-36.13-13.45-38.17-17.89c5.87,3.63,15.11,5.6,28.91,5c41.87-1.82,136.33-59.88,170.52-46.53
							C335.66,164.28,340.36,171.31,340.32,183.9z"/>
						<path class="st14" d="M330.74,565.37c-89-10.16,23.01-179.09-3.82-181.78c-44.79-4.49-43.75-29.06-48.34-45.55
							c4.7,9.4,16.49,16.52,38.87,20.54C410.59,375.31,258.29,520.33,330.74,565.37z"/>
					</g>
					<path class="st14" d="M207.45,308.82c-9.71,50.25-0.01,107.53,15.32,139.17c14.05,28.99,0.19,76.31-34.53,99.25
						c-2.6-1.16-5.17-2.38-7.73-3.64c24.38-34.06,32.58-82.74,9.85-144.32c-20.28-54.95,26.37-131.68,1.71-139.33
						C193.87,259.93,216.78,260.55,207.45,308.82z"/>
					<path class="st11" d="M142.76,430.21c18.25,32.02,13.97,74.52-9.01,96.64c-10.19-8.03-19.84-16.91-28.82-26.65
						c-7.61-8.2-14.72-17-21.31-26.39c-40.79-58.17-53.01-127.46-39.65-191.69c1.72-8.29,3.87-16.49,6.44-24.58
						c13.6,9.03,33.84,21.99,52.8,32.26C155.61,318.17,114.77,381.1,142.76,430.21z"/>
					<path class="st12" d="M95.97,351.9c9.18,67.41-1.91,88.53,8.07,122.31c2.37,8.01,2.33,16.97,0.89,25.99
						c-7.61-8.2-14.72-17-21.31-26.39c-40.79-58.17-53.01-127.46-39.65-191.69C62.41,289.57,89.98,307.93,95.97,351.9z"/>
				</g>
				<path class="st10" d="M190.36,399.28c0.97,2.65,1.89,5.27,2.76,7.88c-36.39-18.43-23.02-83.07-14.64-107.93
					c9.52-28.21-18.22-20.44-18.22-20.44c-54.21,7.8-88.36-14.77-106.06-32.26c2.46-6.67,5.22-13.25,8.28-19.7
					c26.5,23.97,67.53,49.71,111.65,35.16C233.43,242.43,166.82,335.51,190.36,399.28z"/>
				<path class="st14" d="M225.08,255.89c0,0-16.98,5.11-4.14,12.06c12.84,6.95,88.45,7.77,78.71-7.16
					c-9.74-14.93-26.72-9.61-26.72-9.61L225.08,255.89z"/>
				<path class="st9" d="M224.66,258.75c0,0,47.15,12.49,62.76,1.23c10.77-7.77,0.83-40.71-27.65-40.48
					C241.43,219.65,224.66,227.16,224.66,258.75z"/>
				<path class="st12" d="M259.77,219.5c-6.42,0.05-12.65,1.01-18.03,3.59c1.1-0.07,2.21-0.1,3.32-0.11
					c28.48-0.23,38.42,32.71,27.65,40.48c-0.54,0.39-1.14,0.75-1.75,1.09c6.64-0.41,12.54-1.74,16.46-4.56
					C298.2,252.21,288.25,219.27,259.77,219.5z"/>
			</g>
			<path class="st12" d="M413.31,315.9c3.29,11.75,0.41,22.8-6.42,24.66c-6.84,1.86-15.05-6.15-18.33-17.91s-0.41-22.8,6.42-24.66
				C401.81,296.12,410.02,304.14,413.31,315.9z"/>
			<path class="st12" d="M119.64,353.39c1.68,5.99,0.21,11.62-3.27,12.57s-7.67-3.14-9.35-9.13c-1.68-5.99-0.21-11.62,3.27-12.57
				C113.77,343.31,117.96,347.4,119.64,353.39z"/>
			<path class="st12" d="M122.65,454.94c1.68,5.99,0.21,11.62-3.27,12.57c-3.49,0.95-7.67-3.14-9.35-9.13
				c-1.68-5.99-0.21-11.62,3.27-12.57C116.78,444.86,120.97,448.95,122.65,454.94z"/>
			<path class="st12" d="M104.39,310.45c1.32,4.73,0.17,9.16-2.58,9.91c-2.75,0.75-6.05-2.47-7.37-7.2s-0.17-9.16,2.58-9.91
				C99.76,302.5,103.06,305.72,104.39,310.45z"/>
			<path class="st12" d="M439.41,361.4c1.76,6.3,0.22,12.22-3.44,13.22c-3.67,1-8.07-3.3-9.83-9.6c-1.76-6.3-0.22-12.22,3.44-13.22
				C433.24,350.8,437.64,355.1,439.41,361.4z"/>
			<path class="st12" d="M417.1,471.62c1.76,6.3,0.22,12.22-3.44,13.22c-3.67,1-8.07-3.3-9.83-9.6c-1.76-6.3-0.22-12.22,3.44-13.22
				C410.93,461.02,415.34,465.32,417.1,471.62z"/>
			<path class="st12" d="M408.42,228.59c1.68,5.99,0.21,11.62-3.27,12.57c-3.48,0.95-7.67-3.14-9.34-9.13
				c-1.68-5.99-0.21-11.62,3.27-12.57C402.56,218.51,406.75,222.6,408.42,228.59z"/>
			<path class="st12" d="M413.79,180.07c1.76,6.3,0.22,12.22-3.44,13.22s-8.07-3.3-9.83-9.6c-1.76-6.3-0.22-12.22,3.44-13.22
				C407.62,169.46,412.02,173.76,413.79,180.07z"/>
			<path class="st12" d="M221.43,114.75c6.42-1.61,12.39,0.04,13.32,3.68c0.93,3.64-3.51,7.89-9.94,9.5
				c-6.42,1.61-12.38-0.04-13.32-3.68C210.56,120.61,215,116.36,221.43,114.75z"/>
			<path class="st12" d="M249.72,130.96c5.18-1.29,9.98,0.03,10.73,2.97c0.75,2.93-2.83,6.36-8.01,7.65
				c-5.18,1.29-9.98-0.03-10.73-2.97C240.96,135.68,244.54,132.25,249.72,130.96z"/>
			<path class="st12" d="M209.31,147.53c4.84-1.21,9.34,0.03,10.04,2.78c0.7,2.74-2.65,5.95-7.49,7.16
				c-4.84,1.21-9.34-0.03-10.05-2.78C201.12,151.95,204.47,148.74,209.31,147.53z"/>
		</g>
		<g>
			<g>
				<polygon class="st15" points="491.46,338.08 549.29,312.81 494.27,303.21 				"/>
				<polygon class="st16" points="549.29,312.81 509.2,349.42 491.46,338.08 				"/>
			</g>
			<g>
				<polygon class="st15" points="72.38,329.91 9.13,329.04 55.07,360.44 				"/>
				<polygon class="st16" points="9.13,329.04 61.05,312.3 72.38,329.91 				"/>
			</g>
			<g>
				<polygon class="st15" points="105.19,400.38 45.84,399.56 88.95,429.04 				"/>
				<polygon class="st16" points="45.84,399.56 94.56,383.85 105.19,400.38 				"/>
			</g>
			<g>
				<polygon class="st15" points="470.79,293.14 519.34,271.93 473.15,263.87 				"/>
				<polygon class="st16" points="519.34,271.93 485.68,302.66 470.79,293.14 				"/>
			</g>
			<g>
				<polygon class="st15" points="448.37,194.46 500.49,169.49 449.81,162.45 				"/>
				<polygon class="st16" points="500.49,169.49 464.98,204.27 448.37,194.46 				"/>
			</g>
			<g>
				<polygon class="st15" points="188.22,154.78 162.93,103.33 155.79,153.36 				"/>
				<polygon class="st16" points="162.93,103.33 198.16,138.38 188.22,154.78 				"/>
			</g>
			<g>
				<g>
					<polygon class="st17" points="483.09,238.62 479.13,229.54 503.78,219.08 507.74,228.15 					"/>
					<polygon class="st18" points="483.09,238.62 481.19,234.26 505.84,223.8 507.74,228.15 					"/>
				</g>
				<g>
					<path class="st19" d="M516.38,240.12c-9.56,4.06-20.64-0.3-24.75-9.73c-4.11-9.43,0.3-20.37,9.86-24.43
						c9.56-4.06,20.64,0.3,24.75,9.73C530.35,225.13,525.93,236.06,516.38,240.12z"/>
					<path class="st20" d="M526.24,215.69c-0.67-1.53-1.52-2.93-2.52-4.17c1.2,8.13-3.19,16.35-11.2,19.75
						c-8.01,3.4-17.08,0.89-22.23-5.56c0.23,1.57,0.67,3.14,1.34,4.67c4.11,9.43,15.19,13.79,24.75,9.73
						C525.93,236.06,530.35,225.13,526.24,215.69z"/>
				</g>
			</g>
			<g>
				<g>
					<polygon class="st17" points="448.41,398.64 444.46,389.56 469.11,379.1 473.06,388.17 					"/>
					<polygon class="st18" points="448.41,398.64 446.51,394.28 471.16,383.82 473.06,388.17 					"/>
				</g>
				<g>
					<path class="st19" d="M481.7,400.14c-9.56,4.06-20.64-0.3-24.75-9.73c-4.11-9.43,0.3-20.37,9.86-24.43
						c9.56-4.06,20.64,0.3,24.75,9.73C495.67,385.15,491.26,396.08,481.7,400.14z"/>
					<path class="st20" d="M491.56,375.71c-0.67-1.53-1.52-2.93-2.52-4.17c1.2,8.13-3.19,16.35-11.2,19.75
						c-8.01,3.4-17.08,0.89-22.23-5.56c0.23,1.57,0.67,3.14,1.34,4.67c4.11,9.43,15.19,13.79,24.75,9.73
						C491.26,396.08,495.67,385.15,491.56,375.71z"/>
				</g>
			</g>
			<g>
				<g>
					<polygon class="st17" points="404.95,234.11 401.65,224.79 426.98,216.04 430.28,225.37 					"/>
					<polygon class="st18" points="404.95,234.11 403.37,229.64 428.69,220.89 430.28,225.37 					"/>
				</g>
				<g>
					<path class="st19" d="M438.05,237.9c-9.82,3.39-20.57-1.72-24-11.41c-3.44-9.69,1.74-20.3,11.56-23.69
						c9.82-3.39,20.57,1.72,24,11.41C453.05,223.9,447.87,234.51,438.05,237.9z"/>
					<path class="st20" d="M449.62,214.21c-0.56-1.57-1.31-3.02-2.22-4.34c0.62,8.19-4.34,16.09-12.57,18.93
						c-8.23,2.84-17.1-0.29-21.78-7.07c0.12,1.59,0.45,3.18,1.01,4.76c3.44,9.69,14.18,14.8,24,11.41
						C447.87,234.51,453.05,223.9,449.62,214.21z"/>
				</g>
			</g>
			<g>
				<g>
					<polygon class="st17" points="225.68,119.74 216.49,123.65 205.89,99.31 215.08,95.41 					"/>
					<polygon class="st18" points="225.68,119.74 221.27,121.62 210.67,97.29 215.08,95.41 					"/>
				</g>
				<g>
					<path class="st19" d="M227.21,86.88c4.11,9.43-0.3,20.37-9.86,24.43c-9.56,4.06-20.64-0.3-24.75-9.73
						c-4.11-9.43,0.3-20.37,9.86-24.43C212.02,73.09,223.1,77.45,227.21,86.88z"/>
					<path class="st20" d="M202.46,77.15c-1.55,0.66-2.96,1.5-4.23,2.49c8.23-1.19,16.57,3.15,20.01,11.05
						c3.44,7.9,0.9,16.86-5.63,21.94c1.59-0.23,3.19-0.66,4.74-1.32c9.56-4.06,13.97-14.99,9.86-24.43
						C223.1,77.45,212.02,73.09,202.46,77.15z"/>
				</g>
			</g>
			<g>
				<polygon class="st15" points="264.37,238.78 258.65,195.52 241.25,230.02 				"/>
				<polygon class="st16" points="258.65,195.52 275.58,229.28 264.37,238.78 				"/>
			</g>
		</g>
	</g>
	<g>
		<path class="st21" d="M1508.47,358.14c0,0-20.53-7.79-44.31,9.11c-19.28,13.71-44.48,11.89-55.96-2.67
			c-3.63,2.28-8.74,6.23-14.43,12.83c-1.18,1.37-3.43,1.44-4.71,0.15l-2.17-2.19c-1.04-1.04-1.07-2.63-0.07-3.71
			c6.41-6.91,16.85-16.36,26.49-20.66c28.46-12.7,51.77-8.87,52.05-8.82c-0.22-0.13-20.07-11.38-63.04,8.15
			c-0.27-2.01-0.36-4.13-0.27-6.36c0.67-15.81,22.12-36.5,52.18-31.11C1494.05,319.98,1508.47,358.14,1508.47,358.14z"/>
		<path class="st21" d="M1533.2,470.35c-31.48,23.37-72.81,9.07-72.81,9.07s19.7-9.43,20.69-36.93
			c0.81-22.31,18.47-38.82,38.06-37.56c0.41-4.01,0.36-10.12-1.55-18.34c-0.39-1.7,0.98-3.32,2.89-3.4l3.24-0.12
			c1.54-0.06,2.9,0.93,3.16,2.32c1.71,8.92,2.98,22.29,0.42,31.82c-7.53,28.1-25.68,42.01-25.89,42.18
			c0.25-0.07,22.42-6.81,33.5-49.46c1.86,1.1,3.71,2.39,5.52,3.89C1553.3,424.39,1556.98,452.69,1533.2,470.35z"/>
		<path class="st21" d="M1438.8,475.26l-1.42,2.66c-0.68,1.27-2.28,1.88-3.74,1.43c-9.41-2.88-22.87-8.23-30.82-14.82
			c-23.46-19.44-28.2-40.64-28.26-40.89c-0.05,0.23-4.13,21.25,31.64,50.47c-1.95,0.97-4.07,1.84-6.37,2.58
			c-16.32,5.29-45.31-5.24-50.97-32.75c-7.49-36.42,25.96-62.8,25.96-62.8s-0.31,20.31,25.68,34.22
			c21.09,11.28,28.56,33.34,18.02,48.47c3.66,2.24,9.57,5.11,18.39,7.49C1438.74,471.81,1439.64,473.7,1438.8,475.26z"/>
	</g>
	<g>
		<g>
			
				<linearGradient id="SVGID_1_" gradientUnits="userSpaceOnUse" x1="1546.4854" y1="267.6218" x2="1557.4755" y2="268.4211" gradientTransform="matrix(0.998 -0.0629 0.0629 0.998 -215.2599 326.6644)">
				<stop  offset="0" style="stop-color:#F3A37E"/>
				<stop  offset="1" style="stop-color:#DA7F5B"/>
			</linearGradient>
			<path class="st22" d="M1352.83,508.15c-2.28-2.9-5.91-5.07-5.91-5.07c-0.39-3.88-4.05-17.35-4.05-17.35
				c0.04-0.31,0.76-0.39,0.78-0.75c1.29,0.13,3.67,0.84,5.48,4.02c2.07,3.67,3.45,5.14,4.48,9.87c0,0,3.93,2.8,5.17,8.94
				L1352.83,508.15z"/>
			
				<linearGradient id="SVGID_00000119095949130588507760000000276419898913669308_" gradientUnits="userSpaceOnUse" x1="1536.0255" y1="258.6227" x2="1550.621" y2="258.5213" gradientTransform="matrix(0.998 -0.0629 0.0629 0.998 -215.2599 326.6644)">
				<stop  offset="0" style="stop-color:#F3A37E"/>
				<stop  offset="1" style="stop-color:#DA7F5B"/>
			</linearGradient>
			
				<path style="fill:url(#SVGID_00000119095949130588507760000000276419898913669308_);stroke:#231F20;stroke-width:0.5;stroke-miterlimit:10;" d="
				M1329.59,466.82c3.86-2.32,4.57-2.41,5.31-2.34c2.89,0.25,5.94,2.09,7.24,8.07c1.03,4.74,1.65,9.48,1.51,12.42
				c-0.02,0.36-0.04,0.7-0.08,1.01c0,0,3.61,11.92,4,15.79c0,0,2.9,2.23,5.18,5.13c-0.81,0.12-6.27,4.13-6.27,4.13L1329.59,466.82z"
				/>
			
				<linearGradient id="SVGID_00000026151783196068184400000002979107891167429284_" gradientUnits="userSpaceOnUse" x1="1531.0066" y1="255.2579" x2="1543.8329" y2="253.3809" gradientTransform="matrix(0.998 -0.0629 0.0629 0.998 -215.2599 326.6644)">
				<stop  offset="0" style="stop-color:#F3A37E"/>
				<stop  offset="1" style="stop-color:#DA7F5B"/>
			</linearGradient>
			
				<path style="fill:url(#SVGID_00000026151783196068184400000002979107891167429284_);stroke:#231F20;stroke-width:0.5;stroke-miterlimit:10;" d="
				M1347.24,509.95c-7.59-1.76-23.15-34.05-25.88-41.08c-0.36-1.02-1.05-2.89-1.89-4.91c-1.2-2.89,0.92-6.07,4.29-6.38
				c2.89-0.27,6.27,0.98,8.82,6.62c0.07,0.17,0.15,0.33,0.22,0.5c3.03,6.86,3.39,11.48,3.17,14.14c0,0,4.71,7.42,5.52,17.8
				c0,0,1.13,1.77,1.53,3.58c0,0,4.7,3.5,7.39,7.34L1347.24,509.95z"/>
			
				<linearGradient id="SVGID_00000028293846293707882730000016587225449442856325_" gradientUnits="userSpaceOnUse" x1="1337.3485" y1="553.9199" x2="1445.017" y2="504.0349">
				<stop  offset="0" style="stop-color:#F3A37E"/>
				<stop  offset="1" style="stop-color:#DA7F5B"/>
			</linearGradient>
			
				<path style="fill:url(#SVGID_00000028293846293707882730000016587225449442856325_);stroke:#231F20;stroke-width:0.5;stroke-miterlimit:10;" d="
				M1395.4,602.08c0.89-5.48,1.46-12.31,1.3-20.66c-0.12-6.19-3.32-12.04-8.77-15.72c-7.44-5.02-17.25-8.9-23.76-10.31
				c-5.33-1.15-9.05-2.86-11.32-4.15c-1.63-0.93-2.82-2.39-3.33-4.09c-4.18-13.68-12.45-20.53-20.35-32.95
				c-3.8-5.97-3.55-9.59-9.1-24.34c-2.83-7.53-4.81-11.96-6.07-14.51c-1.17-2.37-0.03-5.21,2.6-6.23c1.37-0.52,2.99-0.76,4.76-0.25
				c2.26,0.65,4.73,2.53,7.19,6.57c2.69,4.39,4.81,9.89,4.81,9.89c3.14,3.59,8.48,13.69,9.15,19.06c0,0,0.71,0.31,1.8,0.97
				c0.35,0.2,0.72,0.44,1.13,0.71c0.15,0.1,0.29,0.2,0.45,0.31c0.15,0.11,0.31,0.22,0.46,0.33c0.54,0.39,1.11,0.84,1.69,1.35
				c0.19,0.17,0.39,0.34,0.58,0.52c0.06-0.05,0.11-0.09,0.17-0.12c0.06-0.04,0.11-0.08,0.18-0.12c0.46-0.31,0.94-0.56,1.45-0.78
				c0.48-0.21,0.98-0.37,1.49-0.49c0.28-0.07,0.56-0.13,0.84-0.17c1.52-0.23,3.1-0.09,4.59,0.4c0.45,0.15,0.94,0.32,1.45,0.5v0.01
				c5.14,1.84,13.03,5.23,17.91,10.09c1.72,1.71,3.53,3.23,5.41,4.58c7.27,5.21,16.46,7.56,25.68,7.07
				c6.08-0.33,18.78,2.21,23.15,10.26c6.28,11.6,1.55,20.49,2.25,33.16c0.64,11.4,2.32,21.44,4.01,29.11H1395.4z"/>
			
				<linearGradient id="SVGID_00000146468526043213040010000005023718070561420424_" gradientUnits="userSpaceOnUse" x1="1544.0359" y1="302.1194" x2="1594.976" y2="302.1194" gradientTransform="matrix(0.998 -0.0629 0.0629 0.998 -215.2599 326.6644)">
				<stop  offset="0" style="stop-color:#DC7E5C"/>
				<stop  offset="1" style="stop-color:#DA7F5B"/>
			</linearGradient>
			
				<path style="fill:url(#SVGID_00000146468526043213040010000005023718070561420424_);stroke:#231F20;stroke-width:0.5;stroke-miterlimit:10;" d="
				M1397.12,552.81c-5.38-1.05-10.31-7.62-10.31-7.62c-12.89-5.3-23.09-12.91-23.09-12.91s-7.14-1.79-14.94-10.31
				c-7.47-8.16-5.48-13.36-3.34-15.89c0.95,0.64,2.06,1.47,3.18,2.51c-3.84,2.79-2.31,7.27,0.84,10.83
				c6.8,7.69,15.39,10.92,15.39,10.92c5.79,4.56,23.12,13.97,23.12,13.97S1392.14,551.1,1397.12,552.81z"/>
		</g>
		<g>
			
				<linearGradient id="SVGID_00000098940984345031485740000012076443918235652746_" gradientUnits="userSpaceOnUse" x1="1833.3114" y1="285.6891" x2="1844.3014" y2="286.4884" gradientTransform="matrix(-0.998 -0.0629 -0.0629 0.998 3401.0132 326.6644)">
				<stop  offset="0" style="stop-color:#F3A37E"/>
				<stop  offset="1" style="stop-color:#DA7F5B"/>
			</linearGradient>
			
				<path style="fill:url(#SVGID_00000098940984345031485740000012076443918235652746_);stroke:#231F20;stroke-width:0.5;stroke-miterlimit:10;" d="
				M1545.53,508.15c2.28-2.9,5.91-5.07,5.91-5.07c0.39-3.88,4.05-17.35,4.05-17.35c-0.04-0.31-0.76-0.39-0.78-0.75
				c-1.29,0.13-3.67,0.84-5.48,4.02c-2.07,3.67-3.45,5.14-4.48,9.87c0,0-3.93,2.8-5.17,8.94L1545.53,508.15z"/>
			
				<linearGradient id="SVGID_00000103230558646621423770000000472075723919821443_" gradientUnits="userSpaceOnUse" x1="1822.8514" y1="276.69" x2="1837.447" y2="276.5886" gradientTransform="matrix(-0.998 -0.0629 -0.0629 0.998 3401.0132 326.6644)">
				<stop  offset="0" style="stop-color:#F3A37E"/>
				<stop  offset="1" style="stop-color:#DA7F5B"/>
			</linearGradient>
			
				<path style="fill:url(#SVGID_00000103230558646621423770000000472075723919821443_);stroke:#231F20;stroke-width:0.5;stroke-miterlimit:10;" d="
				M1568.77,466.82c-3.86-2.32-4.57-2.41-5.31-2.34c-2.89,0.25-5.94,2.09-7.24,8.07c-1.03,4.74-1.65,9.48-1.51,12.42
				c0.02,0.36,0.04,0.7,0.08,1.01c0,0-3.61,11.92-4,15.79c0,0-2.9,2.23-5.18,5.13c0.81,0.12,6.27,4.13,6.27,4.13L1568.77,466.82z"/>
			
				<linearGradient id="SVGID_00000156556232948712576540000003091857633199631260_" gradientUnits="userSpaceOnUse" x1="1817.8326" y1="273.3252" x2="1830.6588" y2="271.4482" gradientTransform="matrix(-0.998 -0.0629 -0.0629 0.998 3401.0132 326.6644)">
				<stop  offset="0" style="stop-color:#F3A37E"/>
				<stop  offset="1" style="stop-color:#DA7F5B"/>
			</linearGradient>
			
				<path style="fill:url(#SVGID_00000156556232948712576540000003091857633199631260_);stroke:#231F20;stroke-width:0.5;stroke-miterlimit:10;" d="
				M1551.12,509.95c7.59-1.76,23.15-34.05,25.88-41.08c0.36-1.02,1.05-2.89,1.89-4.91c1.2-2.89-0.92-6.07-4.29-6.38
				c-2.89-0.27-6.27,0.98-8.82,6.62c-0.08,0.17-0.15,0.33-0.22,0.5c-3.03,6.86-3.39,11.48-3.17,14.14c0,0-4.71,7.42-5.52,17.8
				c0,0-1.13,1.77-1.53,3.58c0,0-4.7,3.5-7.39,7.34L1551.12,509.95z"/>
			
				<linearGradient id="SVGID_00000119799743781108966030000015347411799870272155_" gradientUnits="userSpaceOnUse" x1="1433.0538" y1="584.9731" x2="1652.1935" y2="483.4413">
				<stop  offset="0" style="stop-color:#F3A37E"/>
				<stop  offset="1" style="stop-color:#DA7F5B"/>
			</linearGradient>
			
				<path style="fill:url(#SVGID_00000119799743781108966030000015347411799870272155_);stroke:#231F20;stroke-width:0.5;stroke-miterlimit:10;" d="
				M1584.37,475.36c-1.25,2.54-3.23,6.98-6.07,14.51c-5.55,14.75-5.3,18.38-9.1,24.34c-7.9,12.42-16.17,19.26-20.35,32.95
				c-0.52,1.69-1.7,3.15-3.33,4.09c-2.27,1.29-5.99,3-11.32,4.15c-6.51,1.41-16.32,5.29-23.76,10.31
				c-5.45,3.68-8.65,9.52-8.77,15.72c-0.16,8.35,0.41,15.18,1.3,20.66h-41.8c1.69-7.67,3.37-17.7,4.01-29.11
				c0.7-12.67-4.03-21.56,2.25-33.16c4.37-8.05,17.07-10.59,23.15-10.26c9.22,0.49,18.41-1.87,25.68-7.07
				c1.89-1.35,3.7-2.86,5.41-4.58c4.88-4.86,12.77-8.25,17.91-10.09v-0.01c0.51-0.18,1-0.35,1.45-0.5c1.49-0.5,3.07-0.63,4.59-0.4
				c0.28,0.04,0.57,0.1,0.84,0.17c0.51,0.12,1.01,0.28,1.49,0.49c0.51,0.21,0.99,0.47,1.45,0.78c0.06,0.04,0.12,0.08,0.18,0.12
				c0.06,0.04,0.11,0.08,0.17,0.12c0.19-0.18,0.39-0.36,0.58-0.52c0.58-0.51,1.15-0.96,1.69-1.35c0.15-0.11,0.31-0.22,0.46-0.33
				c0.15-0.1,0.3-0.21,0.45-0.31c0.41-0.27,0.78-0.51,1.13-0.71c1.09-0.66,1.8-0.97,1.8-0.97c0.67-5.37,6.02-15.48,9.15-19.06
				c0,0,2.12-5.5,4.81-9.89c2.46-4.04,4.94-5.91,7.19-6.57c1.76-0.51,3.38-0.27,4.76,0.25
				C1584.39,470.15,1585.54,472.98,1584.37,475.36z"/>
			
				<linearGradient id="SVGID_00000115478482778300123520000015225205871963969419_" gradientUnits="userSpaceOnUse" x1="1830.8619" y1="320.1867" x2="1881.8019" y2="320.1867" gradientTransform="matrix(-0.998 -0.0629 -0.0629 0.998 3401.0132 326.6644)">
				<stop  offset="0" style="stop-color:#DC7E5C"/>
				<stop  offset="1" style="stop-color:#DA7F5B"/>
			</linearGradient>
			
				<path style="fill:url(#SVGID_00000115478482778300123520000015225205871963969419_);stroke:#231F20;stroke-width:0.5;stroke-miterlimit:10;" d="
				M1501.24,552.81c5.38-1.05,10.31-7.62,10.31-7.62c12.89-5.3,23.09-12.91,23.09-12.91s7.14-1.79,14.94-10.31
				c7.47-8.16,5.48-13.36,3.34-15.89c-0.95,0.64-2.06,1.47-3.18,2.51c3.84,2.79,2.31,7.27-0.84,10.83
				c-6.8,7.69-15.39,10.92-15.39,10.92c-5.79,4.56-23.12,13.97-23.12,13.97S1506.21,551.1,1501.24,552.81z"/>
		</g>
	</g>
</g>
<g id="Modele">
</g>
</svg>
