<?xml version="1.0" encoding="utf-8"?>
<!-- Generator: Adobe Illustrator 27.5.0, SVG Export Plug-In . SVG Version: 6.00 Build 0)  -->
<svg version="1.1" id="Layer_1" xmlns="http://www.w3.org/2000/svg" xmlns:xlink="http://www.w3.org/1999/xlink" x="0px" y="0px"
	 viewBox="0 0 1600 600" style="enable-background:new 0 0 1600 600;" xml:space="preserve">
<style type="text/css">
	.st0{fill:#0D67BB;}
	.st1{fill:#D3FCFE;}
	.st2{fill:#736357;}
	.st3{fill:#998675;}
	.st4{fill:#FFFFFF;}
	.st5{fill:#333333;}
	.st6{font-family:'InkFree';}
	.st7{font-size:103px;}
	.st8{fill:#007CA7;stroke:#000000;stroke-miterlimit:10;}
	.st9{fill:#E39872;stroke:#000000;stroke-miterlimit:10;}
	.st10{fill:#077096;stroke:#000000;stroke-miterlimit:10;}
	.st11{fill:#026C95;stroke:#000000;stroke-miterlimit:10;}
	.st12{fill:#F7B68E;stroke:#000000;stroke-miterlimit:10;}
	.st13{fill:#0080B3;stroke:#000000;stroke-miterlimit:10;}
	.st14{fill:#FFFFFF;stroke:#000000;stroke-miterlimit:10;}
	.st15{fill:none;stroke:#000000;stroke-width:1.8159;stroke-linecap:round;stroke-miterlimit:10;}
	.st16{fill:none;}
	.st17{fill:#333333;stroke:#333333;stroke-width:2;stroke-miterlimit:10;}
</style>
<rect y="50" class="st0" width="1600" height="550"/>
<rect y="50" class="st1" width="1600" height="550"/>
<g>
	<path class="st2" d="M714.2,591.2c0,2.2-1,2.9,4.1,3.7c9.9,1.4,9.7-7.8,11.1-11.9c4.4-13.1,10.4-26.1,15.7-39.2
		c12.8-31.7,25.6-63.4,38.4-95.1c0-0.1,0.1-0.2,0.1-0.2c-0.3,0-0.5,0-0.8,0c-6.5-0.1-13.1-0.1-19.6-0.2
		c-12.3,36.3-25.1,72.5-37.6,108.7c-2.4,7-4.8,14.1-7.2,21.1C717.1,582.2,714.2,587,714.2,591.2z"/>
</g>
<g>
	<path class="st2" d="M763.3,448.2c6.5,0.1,13.1,0.1,19.6,0.2c0.2,0,0.5,0,0.8,0c0,0.1-0.1,0.2-0.1,0.2c-2.2,5.4-4.4,10.9-6.6,16.3
		c-6.4,0.1-13,0.1-19.4,0.2C759.4,459.5,761.4,453.9,763.3,448.2z"/>
</g>
<g>
	<path class="st2" d="M1087.4,447.4c-7.1,0-14.1,0-21.2,0.1c0.6,0.3,1.1,0.7,1.3,1.3c11.2,27.7,22.4,55.5,33.6,83.2
		c5.8,14.4,11.6,28.7,17.4,43.1c1.9,4.7,3.5,9.4,5,14.2c0.8,2.6,1.4,5.5,6.4,5.9c2.6,0.2,6.4-0.8,7.2-2.2c0.5-0.9,0.2-2.4-0.4-4.1
		c-0.9-2.3-2.3-4.9-2.7-6.1c-2.1-6.4-4.3-12.7-6.5-19.1c-6.2-18.2-12.6-36.4-18.9-54.6C1101.6,488.5,1094.4,468,1087.4,447.4z"/>
</g>
<g>
	<path class="st3" d="M595.8,434c-1.5,0.9-2.2,3.2-1.8,4.4c1.5,4.5,3.8,2.9,7.8,3.5c2.5,0.4,5.1,0.6,7.9,0.7c0.9,0,1.8,0.1,2.7,0.1
		c7.7,0.2,16-0.4,23-0.4c10.2,0,20.3,0,30.5,0.2c39,0.5,77.9,0.8,116.9,1.3c92.1,0.1,184.2-1.3,276.3-1.6
		c28.9-0.1,57.9-0.1,86.8,0.2c31.3,0.2,62.7,0.7,94.1,0c1.8,0,4.7,0.1,7.3,0c0.4,0,0.7,0,1.1,0c1.8-0.1,3.5-0.2,4.6-0.6
		c3.4-1.1,6.2-7.4,2.5-9.4c-2-1.1-9.8-0.7-12.3-0.8c-4.3-0.1-8.5-0.1-12.8-0.1c-12.8,0-25.5,0.3-38.3,0.4
		c-87.2,0.4-174.4,0.5-261.6,0.9c-81.6,0.3-163.4,0.4-244.9-0.7c-18.1-0.2-36.2-0.1-54.3,0.1c-9.4,0.1-18.8,0.2-28.2,0.5
		C599.7,432.9,598,432.6,595.8,434z"/>
</g>
<g>
	<path class="st3" d="M598.7,99.8c-3.9,1.1-7,6.6-3.6,9.1c3.2,2.3,18.9,1.3,23.4,1.3c20,0,40-0.5,60-0.4
		c84.8,0.3,169.4-0.9,254.2-0.9c66.9,0,133.8,0.9,200.8,1c21.3,0,42.7,0,64-0.2c10.1-0.1,20.2-0.2,30.3-0.4c6.6-0.1,18.2,1,24.5-0.5
		c5-1.2,7.5-6.5,1.1-8.8c-3.1-1.1-10.3-0.4-13.9-0.5c-11.6-0.2-23.2-0.1-34.8-0.1c-54.5,0-109.2-0.8-163.7-1.5
		c-113-0.2-225.9,2.3-338.9,1.4c-16.7-0.1-33.5-0.4-50.2-0.5c-2.5,0-5,0-7.5,0c-13.1,0-26.2,0.2-39.3,0.7
		C603.3,99.5,600.3,99.3,598.7,99.8z"/>
</g>
<g>
	<path class="st4" d="M628.9,114.7c-4.5,0-11.6,0.6-18.7,0.6c-0.1,50.6-1.3,101.2-2.3,151.8c-0.5,26.1-1.3,52.2-0.9,78.3
		c0.4,27.3,1.6,54.7-0.6,82c7.3-0.2,15,0.4,19.7,0.4c85.2-1.2,170.5,0.4,255.8,0.5c96.1,0.1,192.1-1,288.3-0.9
		c20.1,0,40.2-0.4,60.4-0.4c0.7,0,1.5,0,2.2,0c2.6,0,5.4-0.1,8.3-0.1c2.1-27.2-0.5-54.3-1.6-81.5c-1-26.1,0.2-52.2,1.1-78.3
		c1.8-51.1,4.3-102.1,4.4-153.2c-4.1,0-8.2-0.1-12,0c-10.6,0.2-21.2,0.3-31.8,0.4c-22.6,0.2-45.1-0.2-67.7-0.3
		c-50.6-0.1-101.1-0.2-151.7-0.4c-92.2-0.3-184.4,1.6-276.6,1C679.7,114.4,654.3,114.5,628.9,114.7z"/>
</g>
<g>
	<path class="st5" d="M589.5,431.1c-3.6,3.2-4.4,8.7-0.9,12s9.7,3.3,15.3,3.5c1.8,0.1,3.6,0.1,5.4,0.2c0.9,0,1.9,0.1,2.8,0.1
		c19.5,0.5,39.1,0.1,58.6,0.3c28.3,0.3,56.6,0.6,85,0.9c-7.9,23.4-16.1,46.7-24.2,70.1c-6.7,19.3-13.5,38.6-20,58
		c-2.4,7.1-11.9,20.3,4.2,23.1c12.7,2.2,16.7-2,18.9-8.9c4.5-14.3,10.7-28.3,16.4-42.4c13.2-32.7,26.4-65.4,39.6-98.1
		c0.2-0.6,0.1-1.1-0.1-1.5c89.6,0.1,179.2-0.6,268.8-1c0.4,1.1,0.9,2.2,1.1,2.5c14.8,36.7,29.6,73.3,44.4,110
		c3.1,7.8,6.6,15.5,9.3,23.4c1.4,3.8,1.2,10.3,4.8,13.6c4.5,4.1,17,3.8,22.6,0.7c4.6-2.6,3-5.8,2-9.1c-1.8-6.1-4-12.2-6-18.3
		c-13.9-40.9-28.6-81.8-42.5-122.8c31.4-0.1,62.9-0.1,94.3,0c18.1,0.1,36.2,0.2,54.2-0.3c1.6,0,3.1-0.1,4.5-0.2c0.2,0,0.5,0,0.7,0
		c9.2-0.7,15.9-3.1,15.7-10.7c-0.1-6.8-7.5-8.7-16.1-9.1c2.1-27.2-0.5-54.4-1.6-81.6c-1-26.1,0.2-52.2,1.1-78.3
		c1.8-51.2,4.3-102.3,4.4-153.5c0.6-0.1,1.3-0.1,1.9-0.2c10.6-1.5,14.5-12.3,5.6-16.6c-5.7-2.8-16.4-1.9-23.2-2
		c-11.5-0.2-23-0.1-34.4-0.1c-53.7-0.1-107.6-0.8-161.3-1.5c-129.1-0.2-258.1,1.3-387.2,1.1c-0.6,0-1.3,0-1.9,0c-2.5,0-5,0-7.5,0
		c-13.8-0.1-27.7-0.1-41.5,0.5c-12.2,0.6-20.5,6.9-15.2,15c2.2,3.4,8.1,4.7,15,5.2c-0.1,50.7-1.3,101.4-2.3,152
		c-0.5,26.1-1.3,52.2-0.9,78.3c0.4,27.5,1.6,55-0.7,82.5C594.8,428.4,591.5,429.4,589.5,431.1z M1227.7,109.3
		c-10.1,0.2-20.2,0.3-30.3,0.4c-21.3,0.2-42.7,0.2-64,0.2c-66.9-0.1-133.9-1-200.8-1c-84.8,0-169.4,1.3-254.2,0.9
		c-20-0.1-40,0.4-60,0.4c-4.5,0-20.2,1.1-23.4-1.3c-3.4-2.5-0.2-7.9,3.6-9.1c1.7-0.5,4.7-0.3,6.5-0.3c13.1-0.5,26.2-0.7,39.3-0.7
		c2.5,0,5,0,7.5,0c16.7,0.1,33.5,0.3,50.2,0.5C815,100.2,928,97.8,1041,97.9c54.5,0.7,109.1,1.5,163.7,1.5c11.6,0,23.2-0.1,34.8,0.1
		c3.6,0.1,10.8-0.6,13.9,0.5c6.3,2.3,3.8,7.6-1.1,8.8C1245.9,110.3,1234.3,109.2,1227.7,109.3z M1239.3,345.4
		c1,27.2,3.7,54.3,1.6,81.5c-2.9,0-5.7,0.1-8.3,0.1c-0.7,0-1.5,0-2.2,0c-20.1,0-40.2,0.4-60.4,0.4c-96.1-0.2-192.2,1-288.3,0.9
		c-85.2-0.1-170.6-1.7-255.8-0.5c-4.8,0.1-12.5-0.5-19.7-0.4c2.3-27.3,1.1-54.6,0.6-82c-0.4-26.1,0.4-52.2,0.9-78.3
		c1.1-50.6,2.3-101.2,2.3-151.8c7.1,0,14.3-0.6,18.7-0.6c25.4-0.2,50.7-0.3,76.2-0.2c92.2,0.6,184.4-1.3,276.6-1
		c50.6,0.2,101.1,0.3,151.7,0.4c22.6,0,45.1,0.5,67.7,0.3c10.6-0.1,21.2-0.2,31.8-0.4c3.8-0.1,7.9,0.1,12,0
		c-0.1,51.1-2.6,102.1-4.4,153.2C1239.5,293.2,1238.3,319.3,1239.3,345.4z M1066.2,447.4c7.1,0,14.1-0.1,21.2-0.1
		c7,20.6,14.1,41.2,21.3,61.7c6.3,18.2,12.7,36.4,18.9,54.6c2.2,6.4,4.4,12.7,6.5,19.1c0.4,1.3,1.9,3.8,2.7,6.1
		c0.6,1.6,0.9,3.2,0.4,4.1c-0.8,1.4-4.7,2.4-7.2,2.2c-5.1-0.5-5.6-3.3-6.4-5.9c-1.5-4.8-3.1-9.5-5-14.2
		c-5.8-14.4-11.6-28.7-17.4-43.1c-11.2-27.7-22.4-55.5-33.6-83.2C1067.3,448.1,1066.8,447.7,1066.2,447.4z M763.3,448.2
		c6.5,0.1,13.1,0.1,19.6,0.2c0.2,0,0.5,0,0.8,0c0,0.1-0.1,0.2-0.1,0.2c-12.8,31.7-25.6,63.4-38.4,95.1c-5.3,13-11.2,26-15.7,39.2
		c-1.4,4.1-1.3,13.4-11.1,11.9c-5-0.7-4.1-1.5-4.1-3.7c0-4.2,2.8-9,4.2-13.1c2.4-7,4.8-14.1,7.2-21.1
		C738.1,520.7,751,484.5,763.3,448.2z M595.8,434c2.2-1.4,4-1.2,7.3-1.3c9.4-0.2,18.8-0.3,28.2-0.5c18.1-0.2,36.2-0.4,54.3-0.1
		c81.5,1,163.3,0.9,244.9,0.7c87.2-0.3,174.4-0.4,261.6-0.9c12.8-0.1,25.5-0.4,38.3-0.4c4.3,0,8.5,0,12.8,0.1
		c2.5,0.1,10.3-0.3,12.3,0.8c3.7,2,0.9,8.3-2.5,9.4c-1.2,0.4-2.8,0.5-4.6,0.6c-0.3,0-0.7,0-1.1,0c-2.7,0-5.5-0.1-7.3,0
		c-31.3,0.7-62.7,0.2-94.1,0c-28.9-0.2-57.9-0.2-86.8-0.2c-92.1,0.3-184.2,1.7-276.3,1.6c-39-0.5-78-0.8-116.9-1.3
		c-10.2-0.1-20.3-0.2-30.5-0.2c-7.1,0-15.3,0.5-23,0.4c-0.9,0-1.9,0-2.7-0.1c-2.7-0.1-5.4-0.3-7.9-0.7c-4-0.6-6.3,0.9-7.8-3.5
		C593.6,437.2,594.3,435,595.8,434z"/>
</g>
<g>
	<path class="st2" d="M1074.2,465.2c-2.2-5.5-4.4-11-6.7-16.5c-0.2-0.6-0.7-1-1.3-1.3c7.1,0,14.1-0.1,21.2-0.1
		c2,5.9,4.1,11.9,6.1,17.8h-19.3L1074.2,465.2L1074.2,465.2z"/>
</g>
<text transform="matrix(1.0909 0 0 1 652.0703 243.1016)" class="st5 st6 st7">Rezultatele </text>
<text transform="matrix(1.0909 0 0 1 682.2812 352.0312)" class="st5 st6 st7">proiectului</text>
<path class="st4" d="M329.7,391.4c-2.7,12.3,2.2,24.8,9.2,34.9c7.2,10.2,16.2,19.4,24.3,29c3.2,3.7,6.4,7.5,10.2,10.6
	c6.1,5,18,11,24.6,3.6c4.7-5.3,0.7-12.9-4.6-19.7c-4.1-5.4-9.1-10.3-11.5-13.3c-6-7.7-13.5-15-18.3-23.4c-4.5-8-4.5-14.5,2.2-21.4
	c10.4-10.6,21.8-20.7,33-30.5c1.4-1.3,4.3-0.5,4.1,1.7c-2.3,27.8-3.5,55.7-5.9,83.5c0,0.3-0.1,0.6-0.2,0.8c0.6,0.8,1.2,1.5,1.9,2.3
	c3.1,3.7,5.7,7.1,6,12c0.4,7.5-3.1,15-11,16.1c-0.6,0.1-1.1,0.1-1.7,0.2c-5.3,24.3-9.5,48.8-11.9,73.7c-1,10.4-2.8,21.7-1.7,32.1
	c0.9,8.8,10.2,19,17.6,8.5c3.7-5.3,5.5-12.2,7.8-18.2c8.1-21.3,16.3-42.7,23.3-64.3c0-0.1,0.1-0.3,0.1-0.4c3.1-9.9,9.1-36.9,24-34.1
	c12.7,2.3,17.2,28,19.6,37.6c0.4,1.7,0.8,3.4,1.2,5.1c5.2,21.3,10.3,42.1,19.1,62.4c1.9,4.4,3.7,8.8,6.9,12.5
	c6.3,7.3,13.7,2.7,16.8-5.1c1.7-4.4,2.5-9.2,2.6-13.9c0.2-6.8-0.7-13.8-1.2-20.4c-1.4-16.8-3-33.7-4.9-50.5
	c-3.6-33.1-7.8-66.1-12.2-99.2c-1-7.7-2.1-15.4-3.2-23.1c-0.8-5.6-2.9-13.4,0.7-18.3c3.9-5.2,7.7-0.6,11.5,2.4
	c6.8,5.3,13.4,10.8,20.2,16.1c13.5,10.5,30.3,23.9,45.2,8c6.6-7,12.1-15.1,17.5-23.3c4.3-6.6,8.5-13.3,13-19.6
	c4.7-6.6,9.2-13.3,12.9-20.6c4.5-8.9,15.2-28.4,6.4-36.7c-12.8-12-23.8,7-29.6,15.9c-6.3,9.8-13.8,18.9-19.7,29
	c-4.4,7.5-8.5,15.4-14,22.1c-2.1,2.5-3.9,5-7.3,3.8c-3.1-1-6.3-4.8-8.8-6.8c-4.8-3.9-9.6-7.8-14.6-11.5c-1.6-1.2-3.3-2.5-5-3.7
	C509.6,326.7,493.2,316,475,313c-2.2-0.4-2.2-3.4-0.6-4.4c22.1-14.6,36.4-39,31.2-66c-2-10.2-7.2-19.2-14.3-26.5
	c-11.9-12.2-29.1-20-45.4-21.9c-14.2-1.7-32.5-0.6-45,6.8c-12.9,7.7-21.7,20.4-26.6,34.2c-9.2,25.8-2,53.5,18.5,70.1
	c3.4,2.7,7.1,5.1,11.2,7.2c1.8,0.9,1.3,3.2,0,4.2c-17.8,13.7-34.4,28.6-50.7,44.1c-8.7,8.2-19.5,16.6-23,28.5
	C330.1,389.8,329.9,390.6,329.7,391.4z"/>
<g>
	<path class="st8" d="M438.5,381.3c1.2-7.5,2.4-14.9,3.7-22.4c0.6-3.4,2.5-8.4,2.1-11.9c-0.4-2.9-4.7-5.5-5-7.5
		c-0.2-1.1,1.5-4.2,1.9-5.1c1.1-2.4,0-1.6,2.5-2.4c2-0.6,4.4,0.3,6.4-0.1c0.1,0,1.2-0.1,1.8-0.1c1.8,1.5,4,5.3,4.9,7.9
		c-3.5,5-6.3,5.2-4.6,11.6c2.6,9.6,5.9,19.1,8.5,28.7c1.3,4.8,2.6,9.5,3.5,14.4c0.2,1.2,1.5,4.7,0.9,6c-0.4,0.8-3.7,2.7-4.5,3.4
		c-3.3,2.7-7,5.4-9.9,8.4c-0.3,0.3-0.5,0.5-0.6,0.7l-0.1-0.1c-1.2-0.8-2.2-1.8-3.3-2.7c-3.1-2.7-6.1-5.4-9.2-8.1
		c-0.5-0.4-1.5-1.1-2-1.7c0-0.1,0-0.4,0-0.9C435.4,393.9,437.6,386.9,438.5,381.3z"/>
</g>
<path class="st5" d="M337.4,432.3c8.3,10.9,17.7,21.7,27.1,31.7c5.9,6.3,13.7,12.2,22.4,13.4c-2.6,12-5,24-6.9,36.1
	c-2,12-3.6,24.1-4.7,36.3c-1.1,11.6-3.3,24.6-1.5,36.2c2.4,15.5,19.2,20.9,27.4,6.5c5.5-9.7,8.6-21.3,12.5-31.7
	c4.4-11.9,8.6-23.9,12.9-35.8c1.8-5,3.3-10,5-15.1c1.6-5.1,3.2-10.1,5.2-15c1.3-3.3,2.9-6.3,5-9.1c2.6-3.5,8.4-6.3,12.2-3.6
	c2.8,2,4.6,7.5,5.8,10.6c3.4,8.4,5.9,17.1,8,25.9c3.6,14.7,6.3,29.7,11.4,43.9c3.5,9.9,12,42.9,27.8,39.2c12-2.8,15-15.7,15.2-28.2
	c0.2-7.2-0.6-14.2-1-19.1c-1.6-18.9-3.4-37.7-5.5-56.6c-3.7-33.7-8-67.3-12.6-100.9c-0.9-6.5-1.8-13-2.7-19.5
	c-0.2-1.8-0.5-3.5-0.6-5.3c-0.1-1.5-0.4-3.3,0-4.8c0.9-3.5,0.5-3,3.1-1c8,6,15.5,12.5,23.5,18.6c10.4,8,23.8,19.2,38,15.6
	c13.9-3.5,22.6-21.1,30.1-33.2c0.8-1.3,1.5-2.4,2.3-3.6c10.6-15.5,22.2-29.7,29.1-47.4c3.2-8.2,9.1-19,4.2-27.5
	c-3.1-5.4-9.3-8.8-15.5-8.9c-7.4-0.1-13.8,5-18.1,10.6c-6.6,8.4-11.9,18.2-18.2,27c-5.9,8.3-10.7,17.2-16.1,25.8
	c-1.9,3.1-4.3,8.2-7.3,10.4c-0.6,0.5-0.4,0.7-0.1,0.8c-0.1,0-0.1,0-0.2,0c-0.5,0-1.2-0.9-1.6-1.2c-7-5.1-14-10.6-21-16.1
	c-15.4-12-31.3-23.5-50.3-28.1c10.2-7.7,18.9-17.4,24.5-29c4.5-9.2,5.4-20.9,5-31c-0.5-14.3-6.9-26.5-16.4-36.3
	c-5.6-5.8-12.4-10.8-19.7-14.6c-11.1-6-22.8-9.3-35.5-9.7c-12.5-0.5-27.8,1-39,6.8c-22,11.4-35.1,37.8-35.7,61.9
	c-0.5,19.9,9.5,39,24.7,51.4c2.8,2.2,5.7,4.3,8.8,6.1c-21.8,16.9-43.7,35.3-62.2,55.7c-5.7,6.3-9.2,13.1-10.6,20.1
	C322.5,404.6,327.4,419.4,337.4,432.3z M329.7,391.4c0.2-0.8,0.4-1.6,0.6-2.3c3.5-11.9,14.3-20.3,23-28.5
	c16.3-15.4,32.9-30.4,50.7-44.1c1.3-1,1.8-3.3,0-4.2c-4.1-2.1-7.8-4.5-11.2-7.2c-20.6-16.6-27.7-44.3-18.5-70.1
	c4.9-13.9,13.7-26.5,26.6-34.2c12.5-7.5,30.8-8.5,45-6.8c16.2,1.9,33.5,9.7,45.4,21.9c7.1,7.3,12.4,16.3,14.3,26.5
	c5.2,27-9.1,51.4-31.2,66c-1.6,1-1.6,4.1,0.6,4.4c18.2,3,34.6,13.7,49.3,24.3c1.7,1.2,3.3,2.4,5,3.7c4.9,3.7,9.8,7.6,14.6,11.5
	c2.5,2,5.7,5.8,8.8,6.8c3.4,1.1,5.3-1.3,7.3-3.8c5.5-6.7,9.7-14.6,14-22.1c5.9-10.1,13.4-19.1,19.7-29c5.8-9,16.8-27.9,29.6-15.9
	c8.8,8.3-1.9,27.8-6.4,36.7c-3.6,7.2-8.1,14-12.9,20.6c-4.5,6.3-8.7,13-13,19.6c-5.4,8.2-10.9,16.3-17.5,23.3
	c-14.9,15.9-31.7,2.5-45.2-8c-6.8-5.3-13.4-10.9-20.2-16.1c-3.9-3-7.6-7.5-11.5-2.4c-3.7,4.8-1.5,12.7-0.7,18.3
	c1.1,7.7,2.1,15.4,3.2,23.1c4.4,33,8.6,66,12.2,99.2c1.8,16.8,3.5,33.7,4.9,50.5c0.6,6.6,1.5,13.6,1.2,20.4
	c-0.1,4.8-0.9,9.5-2.6,13.9c-3.1,7.7-10.5,12.4-16.8,5.1c-3.2-3.7-5-8.1-6.9-12.5c-8.8-20.3-13.9-41.1-19.1-62.4
	c-0.4-1.7-0.8-3.4-1.2-5.1c-2.4-9.6-6.9-35.3-19.6-37.6c-14.9-2.8-21,24.2-24,34.1c0,0.1-0.1,0.3-0.1,0.4
	c-6.9,21.7-15.2,43.1-23.3,64.3c-2.3,6-4.1,12.9-7.8,18.2c-7.4,10.5-16.7,0.3-17.6-8.5c-1.1-10.4,0.7-21.7,1.7-32.1
	c2.3-24.8,6.6-49.3,11.9-73.7c0.6,0,1.1-0.1,1.7-0.2c7.9-1.1,11.4-8.5,11-16.1c-0.3-5-2.9-8.3-6-12c-0.6-0.8-1.2-1.5-1.9-2.3
	c0.1-0.2,0.2-0.5,0.2-0.8c2.4-27.8,3.7-55.7,5.9-83.5c0.2-2.2-2.7-3-4.1-1.7c-11.1,9.8-22.6,19.9-33,30.5
	c-6.7,6.8-6.7,13.3-2.2,21.4c4.8,8.4,12.3,15.8,18.3,23.4c2.4,3.1,7.4,8,11.5,13.3c5.3,6.9,9.3,14.5,4.6,19.7
	c-6.6,7.4-18.5,1.4-24.6-3.6c-3.8-3.1-7-6.9-10.2-10.6c-8.1-9.5-17.1-18.8-24.3-29C331.9,416.1,327.1,403.7,329.7,391.4z
	 M392.4,441.9c-2.2-2.7-4.3-5.3-6.4-8c-4.5-5.7-9-11.4-13.6-17c-5-6.1-10.6-13.5-4.1-21c4.9-5.5,11.1-10.2,16.5-15.3
	c4.2-4,8.5-8,12.8-11.9C395.6,393.1,394.4,417.5,392.4,441.9z"/>
<path class="st5" d="M432.9,394c-0.3,2.2-1.5,5.7-0.5,7.8c1.7,3.9,8.9,8.2,12.1,10.9c2.4,2,4.2,4.6,7.3,3.6c2.3-0.8,4.9-4.1,6.6-5.6
	c3.2-2.8,6.4-5.5,10-7.9c0.5-0.3,1-0.9,0.9-1.6c-1.6-12.8-5.6-25.3-9.3-37.6c-1.4-4.6-4-9.9-4.4-14.7c-0.3-3.1,2.7-4.6,4.8-7.7
	c0.2-0.2,0.3-0.4,0.4-0.6c0.2-0.5,0.1-1-0.1-1.4c-1.2-3.6-4.3-9.8-7.9-11c-3.5-1.1-11.4-1.1-13.8,2c-3.5,4.6-4.3,9.4-0.9,13.7
	c2.4,3.1,2.2,2,2.2,4.9c0,2.1-0.8,4.4-1.1,6.4C437,368.3,434.8,381.1,432.9,394z M435.8,399.5c-0.4-5.7,1.8-12.6,2.7-18.2
	c1.2-7.5,2.4-14.9,3.7-22.4c0.6-3.4,2.5-8.4,2.1-11.9c-0.4-2.9-4.7-5.5-5-7.5c-0.2-1.1,1.5-4.2,1.9-5.1c1.1-2.4,0-1.6,2.5-2.4
	c2-0.6,4.4,0.3,6.4-0.1c0.1,0,1.2-0.1,1.8-0.1c1.8,1.5,4,5.3,4.9,7.9c-3.5,5-6.3,5.2-4.6,11.6c2.6,9.6,5.9,19.1,8.5,28.7
	c1.3,4.8,2.6,9.5,3.5,14.4c0.2,1.2,1.5,4.7,0.9,6c-0.4,0.8-3.7,2.7-4.5,3.4c-3.3,2.7-7,5.4-9.9,8.4c-0.3,0.3-0.5,0.5-0.6,0.7
	l-0.1-0.1c-1.2-0.8-2.2-1.8-3.3-2.7c-3.1-2.7-6.1-5.4-9.2-8.1c-0.5-0.4-1.5-1.1-2-1.7C435.9,400.3,435.9,400,435.8,399.5z"/>
<path class="st5" d="M463.2,248.6c0.1-6.2-0.3-12.5-1.1-18.7c-0.4-3.1,4.5-3.1,4.9,0c0.8,6.2,1.1,12.4,1.1,18.7
	C468,251.7,463.2,251.8,463.2,248.6z"/>
<path class="st5" d="M421,232.5c0.8,5.8,1.4,11.5,1.4,17.4c0,3.1-4.9,3.1-4.9,0c0-5.4-0.4-10.7-1.2-16.1
	C415.9,230.8,420.6,229.5,421,232.5z"/>
<g>
	<g>
		<g>
			<path class="st9" d="M1591.8,50.5l-103.6,77.9c0,0-31.1-4.5-52.6-2.4c-10.6,1-30.7,9.7-45.8,15.1c-7.7,2.7,2.8,11.2,10.7,10.5
				c7.9-0.7,23.4-4.8,23.4-4.8l-0.1,2.3l-12.4,12.3c0,0-42.6,33.4-48.9,39.1c-6.5,5.9-3,12.8,5.8,8c10.4-5.6,35.6-21.7,44.7-26.8
				c2.3-1.3,2.1,0.9,2.1,0.9s-31.6,22.6-51.6,36.7c-9.1,6.4-3.3,14.2,5.3,8.9c12.6-7.8,42.3-25,53-31.7c2.6-1.6,2.2,0.8,2.2,0.8
				s-33.3,24.8-48.4,35.1c-6.5,4.4-0.5,10.8,5.7,7.7c10.5-5.1,40.8-22.9,50.1-28.9c2.5-1.6,2.2,1.3,2.2,1.3s-24.1,17.8-39,28.2
				c-4.1,2.8-0.9,10.5,5.9,7.2c18.8-9,72.3-43.5,87.1-56.2c15.8-13.6,11.5-16.9,23.1-31l88.5-52.4V62.4l-3.5-11.9H1591.8z"/>
		</g>
		<polygon class="st10" points="1584.8,50.5 1505.5,112.8 1533.1,151.1 1599.2,116.3 1599.2,50.5 		"/>
		<polygon class="st11" points="1584.8,50.5 1505.5,112.8 1518.9,131.4 1599.2,76.6 1599.2,50.5 		"/>
	</g>
	<g>
		<g>
			<path class="st12" d="M1599.6,97.1l-91.6,50.2c0,0-30.1-8.9-51.7-9.9c-10.6-0.5-31.7,5.2-47.5,8.4c-8.1,1.6,1.1,11.5,9,12
				c7.9,0.4,23.9-1.4,23.9-1.4l-0.4,2.3l-14,10.4c0,0-46.9,26.9-54,31.7c-7.3,4.9-4.8,12.2,4.6,8.8c11.1-4,38.3-16.3,48.1-20.1
				c2.5-1,2,1.2,2,1.2s-34.5,17.8-56.3,28.9c-10,5.1-5.3,13.6,3.9,9.6c13.6-5.9,45.4-18.6,57-23.8c2.8-1.2,2.1,1.2,2.1,1.2
				s-36.5,19.7-52.9,27.8c-7,3.4-2,10.6,4.6,8.5c11.2-3.5,43.7-16.8,53.7-21.4c2.7-1.2,2,1.6,2,1.6s-26.4,14.2-42.7,22.3
				c-4.4,2.2-2.4,10.2,4.8,8c19.9-6.2,77.8-32.6,94.2-43.1c17.5-11.2,13.8-15,27.3-27.4l74-30.5L1599.6,97.1L1599.6,97.1z"/>
		</g>
		<polygon class="st8" points="1599.6,92.8 1527.3,134.4 1549.2,176.2 1599.6,158.3 		"/>
		<polygon class="st13" points="1599.6,92.8 1527.3,134.4 1537.9,154.6 1599.6,124.5 		"/>
		<path class="st14" d="M1567.8,135.5c2.5,1.2,5.5,0.1,6.7-2.4s0.1-5.5-2.4-6.7s-5.5-0.1-6.7,2.4
			C1564.2,131.3,1565.2,134.3,1567.8,135.5z"/>
		<path class="st14" d="M1553,143.1c2.5,1.2,5.5,0.1,6.7-2.4s0.1-5.5-2.4-6.7s-5.5-0.1-6.7,2.4S1550.5,141.9,1553,143.1z"/>
	</g>
</g>
<line class="st15" x1="1397.6" y1="123.3" x2="1391.4" y2="100"/>
<line class="st15" x1="1462.9" y1="263.8" x2="1467.3" y2="281.5"/>
<line class="st15" x1="1347.1" y1="236.3" x2="1330.1" y2="244.6"/>
<line class="st15" x1="1363.2" y1="152" x2="1345.7" y2="140.7"/>
<line class="st15" x1="1384.6" y1="265.5" x2="1376" y2="286.6"/>
<line class="st15" x1="1345.6" y1="189.9" x2="1323.5" y2="187.5"/>
<line class="st15" x1="1421.2" y1="278.7" x2="1420.9" y2="296.3"/>
<line class="st15" x1="1491.7" y1="239.4" x2="1508.6" y2="255.5"/>
<g>
	<g>
		<g>
			<path class="st9" d="M122.7,129.1c0,0,29-7.4,49.7-7.7c10.2-0.1,30.1,6.1,45,9.6c7.6,1.8-1.5,10.9-9,11.1
				c-7.6,0.2-22.7-2.2-22.7-2.2l0.3,2.2l13,10.4c0,0,43.9,27.3,50.4,32.1c6.8,5,4.2,11.8-4.7,8.2c-10.4-4.2-36-16.9-45.2-20.9
				c-2.4-1-1.9,1.1-1.9,1.1s32.3,18.2,52.8,29.5c9.3,5.2,4.6,13.2-4.1,9c-12.8-6.1-42.7-19.4-53.5-24.7c-2.6-1.3-2,1-2,1
				s34.1,20.1,49.5,28.4c6.6,3.5,1.6,10.2-4.7,7.9c-10.5-3.7-41.1-17.6-50.5-22.3c-2.5-1.3-2,1.5-2,1.5s24.7,14.4,39.9,22.8
				c4.1,2.3,1.9,9.8-4.8,7.4c-18.7-6.6-73.1-33.8-88.4-44.4c-16.3-11.3-12.7-14.8-25.1-27.1L3.8,116l9.4-52.5L122.7,129.1z"/>
		</g>
		<polygon class="st10" points="0.5,50.9 0.5,122.8 82.4,155.2 104.7,116.1 		"/>
		<polygon class="st11" points="0.5,50.9 0.5,85 93.9,135 104.7,116.1 		"/>
	</g>
	<g>
		<g>
			<path class="st12" d="M243.5,207.2c-21.9-8.3-56.4-21.7-56.4-21.7s-0.7-2,1.7-1.4c9.7,2.6,36.8,11.5,47.7,14.2
				c9.3,2.3,10.9-4.9,3.5-8.8c-7.2-3.8-54.5-24.6-54.5-24.6l-14.3-8.4l-0.6-2.1c0,0,15.4,0.1,22.8-1.1c7.5-1.2,15.2-11.6,7.4-12.3
				c-15.2-1.4-35.9-4.7-45.9-3.1c-20.4,3.2-48.1,14.7-48.1,14.7l-106.1-44V161l93,27.1c14,10.3,10.9,14.4,28.7,23.2
				c16.7,8.3,74.3,27.4,93.8,31.3c7,1.4,8.1-6.4,3.7-8.1c-16.2-6.1-42.8-16.8-42.8-16.8s-0.9-2.6,1.8-1.7
				c10,3.3,42.2,12.6,53.2,14.8c6.5,1.3,10.5-6,3.5-8.5c-16.4-6-53-21-53-21s-0.9-2.2,1.8-1.3c11.5,3.7,43,12.5,56.5,16.7
				C249.9,219.5,253.5,210.9,243.5,207.2z"/>
		</g>
		<polygon class="st8" points="0.5,104.2 0.5,167.6 70.5,184.3 87,142.3 		"/>
		<polygon class="st13" points="0.5,104.2 0.5,134.2 79,162.6 87,142.3 		"/>
		<path class="st14" d="M48.7,147.5c-2.3,1.4-5.2,0.7-6.6-1.6c-1.4-2.3-0.7-5.3,1.6-6.6c2.3-1.4,5.2-0.7,6.6,1.6
			C51.7,143.2,50.9,146.1,48.7,147.5z"/>
		<path class="st14" d="M63.4,153.2c-2.3,1.4-5.2,0.7-6.6-1.6c-1.4-2.3-0.7-5.3,1.6-6.6c2.3-1.4,5.2-0.7,6.6,1.6
			C66.4,148.9,65.7,151.9,63.4,153.2z"/>
	</g>
	<line class="st15" x1="211.9" y1="115" x2="215.4" y2="92.4"/>
	<line class="st15" x1="164.2" y1="255.1" x2="161.9" y2="272.4"/>
	<line class="st15" x1="271.4" y1="217.2" x2="288.3" y2="223.3"/>
	<line class="st15" x1="247.5" y1="138.8" x2="262.9" y2="126.3"/>
	<line class="st15" x1="238.7" y1="248.7" x2="249" y2="267.9"/>
	<line class="st15" x1="268" y1="173" x2="288.8" y2="168.4"/>
	<line class="st15" x1="205.3" y1="265" x2="207.4" y2="281.7"/>
	<line class="st15" x1="134.4" y1="234.9" x2="120" y2="251.9"/>
</g>
<g>
	<g>
		<g>
			<path class="st9" d="M197.7,444.1c-14.2,8.2-37.9,21.1-37.9,21.1s-2.5-0.9-0.2-2.3c8.4-5.3,34.6-23.2,42.7-29.8
				c4.8-4,2-11.2-4.1-7.7c-14.2,8.4-47.1,26-47.1,26s-2.2-0.6,0.2-2.1c9.6-6.1,34.9-23.8,46.1-31.1c7.6-5,3.5-12.7-5.2-7.7
				c-19.2,11-49.6,28.1-49.6,28.1s-1.9-0.7,0-2.1c7.7-5.5,30.4-19.9,38.9-26.3c7.2-5.4,3-10.9-4.3-7.8c-7.1,3-50.6,25-50.6,25
				l-14.7,5.4L110,432c0,0,9.3-11.1,12.9-17.3c3.6-6.2,0.7-18-4.5-12.7c-10.1,10.3-24.9,23.3-29.8,31.6
				c-9.9,16.8-18.2,43.9-18.2,43.9l-69.9,37v51.6l1.2,1l86.5-58.9c15.9-4,17,0.7,34.1-7c16-7.2,64.5-37.7,79.1-49.6
				C206.5,447.4,201.5,441.9,197.7,444.1z"/>
		</g>
		<polygon class="st10" points="0.5,576.6 71.6,522.7 51.1,485.5 0.5,511 		"/>
		<polygon class="st11" points="0.5,539.3 61,503.5 51.1,485.5 0.5,511 		"/>
	</g>
	<g>
		<g>
			<path class="st12" d="M27.4,599.5l76-69.7c15.2-6.3,16.9-1.7,32.7-11.8c14.8-9.4,58.5-46.6,71.2-60.4c4.6-5-1.2-9.7-4.7-7
				c-12.9,10.1-34.5,26.3-34.5,26.3s-2.6-0.5-0.5-2.3c7.6-6.4,30.9-27.9,38-35.7c4.2-4.6,0.3-11.4-5.1-7
				c-12.8,10.3-42.9,32.5-42.9,32.5s-2.2-0.3-0.1-2.1c8.6-7.4,31.2-28.6,41.2-37.4c6.8-6,1.7-13.1-6.3-6.9
				c-17.4,13.6-45.1,34.9-45.1,34.9s-2-0.4-0.3-2.1c6.8-6.6,27.3-24.1,34.8-31.6c6.4-6.4,1.4-11.2-5.4-7.1c-6.6,3.9-46.5,32-46.5,32
				l-13.8,7.5l-2-0.6c0,0,7.6-12.3,10.3-19c2.7-6.6-1.9-17.9-6.2-12c-8.6,11.6-21.3,26.7-25,35.6c-7.4,18.1-11.8,46.1-11.8,46.1
				L0.5,561.1v22.5l24.1,15.9H27.4z"/>
		</g>
		<polygon class="st8" points="36.9,599.5 89.1,546.6 63.5,512.7 0.5,556.8 0.5,599.5 		"/>
		<polygon class="st13" points="0.5,589.8 75.9,529.1 63.5,512.7 0.5,556.8 		"/>
		<path class="st14" d="M48.8,546.2c0,2.5-2,4.6-4.6,4.6s-4.5-2-4.5-4.6c0-2.5,2-4.6,4.5-4.6S48.8,543.7,48.8,546.2z"/>
		<path class="st14" d="M60.7,537.1c0,2.5-2,4.6-4.5,4.6s-4.6-2-4.6-4.6c0-2.5,2-4.6,4.6-4.6C58.7,532.5,60.7,534.6,60.7,537.1z"/>
	</g>
	<line class="st15" x1="102.8" y1="398.4" x2="86.3" y2="384.5"/>
	<line class="st15" x1="192" y1="505.7" x2="204.7" y2="516"/>
	<line class="st15" x1="214.1" y1="400.5" x2="227.3" y2="389.9"/>
	<line class="st15" x1="139.4" y1="381.4" x2="136.9" y2="362.7"/>
	<line class="st15" x1="223.5" y1="442.4" x2="243.9" y2="443.5"/>
	<line class="st15" x1="176.9" y1="381.6" x2="183.5" y2="362.5"/>
	<line class="st15" x1="220.1" y1="477.4" x2="234.5" y2="483.8"/>
	<line class="st15" x1="161.1" y1="519.8" x2="167.8" y2="539.8"/>
</g>
<g>
	<g>
		<g>
			<path class="st9" d="M1402.3,444.1c14.2,8.2,37.9,21.1,37.9,21.1s2.5-0.9,0.2-2.3c-8.4-5.3-34.6-23.2-42.7-29.8
				c-4.8-4-2-11.2,4.1-7.7c14.2,8.4,47.1,26,47.1,26s2.2-0.6-0.2-2.1c-9.6-6.1-34.9-23.8-46.1-31.1c-7.6-5-3.5-12.7,5.2-7.7
				c19.2,11,49.6,28.1,49.6,28.1s1.9-0.7,0-2.1c-7.7-5.5-30.4-19.9-38.9-26.3c-7.2-5.4-3-10.9,4.3-7.8c7.1,3,50.6,25,50.6,25
				l14.7,5.4l1.9-0.8c0,0-9.3-11.1-12.9-17.3c-3.6-6.2-0.7-18,4.5-12.7c10.1,10.3,24.9,23.3,29.8,31.6c9.9,16.8,18.2,43.9,18.2,43.9
				l69.8,37.1v51.6l-1.2,1l-86.5-58.9c-15.9-4-17,0.7-34.1-7c-16-7.2-64.5-37.7-79.1-49.6C1393.5,447.4,1398.5,441.9,1402.3,444.1z"
				/>
		</g>
		<polygon class="st10" points="1599.5,576.6 1528.4,522.8 1548.9,485.5 1599.5,511 		"/>
		<polygon class="st11" points="1599.5,539.3 1539,503.6 1548.9,485.5 1599.5,511 		"/>
	</g>
	<g>
		<g>
			<path class="st12" d="M1572.6,599.5l-76-69.7c-15.2-6.3-16.9-1.7-32.7-11.8c-14.8-9.4-58.5-46.6-71.2-60.4c-4.6-5,1.2-9.7,4.7-7
				c12.9,10.1,34.5,26.3,34.5,26.3s2.6-0.5,0.5-2.3c-7.6-6.4-30.9-27.9-38-35.7c-4.2-4.6-0.3-11.4,5.1-7
				c12.8,10.3,42.9,32.5,42.9,32.5s2.2-0.3,0.1-2.1c-8.6-7.4-31.2-28.6-41.2-37.4c-6.8-6-1.7-13.1,6.3-6.9
				c17.4,13.6,45.1,34.9,45.1,34.9s2-0.4,0.3-2.1c-6.8-6.6-27.3-24.1-34.8-31.6c-6.4-6.4-1.4-11.2,5.4-7.1c6.6,3.9,46.5,32,46.5,32
				l13.8,7.5l2-0.6c0,0-7.6-12.3-10.3-19c-2.7-6.6,1.8-17.9,6.2-12c8.6,11.6,21.3,26.7,25,35.6c7.4,18.1,11.8,46.1,11.8,46.1
				l80.9,59.3v22.5l-24.1,15.9L1572.6,599.5L1572.6,599.5z"/>
		</g>
		<polygon class="st8" points="1563.1,599.5 1510.9,546.6 1536.5,512.7 1599.5,556.8 1599.5,599.5 		"/>
		<polygon class="st13" points="1599.5,589.8 1524.1,529.1 1536.5,512.7 1599.5,556.8 		"/>
		<path class="st14" d="M1551.2,546.2c0,2.5,2,4.6,4.6,4.6s4.5-2,4.5-4.6c0-2.5-2-4.6-4.5-4.6S1551.2,543.7,1551.2,546.2z"/>
		<path class="st14" d="M1539.3,537.1c0,2.5,2,4.6,4.5,4.6s4.6-2,4.6-4.6c0-2.5-2-4.6-4.6-4.6
			C1541.3,532.5,1539.3,534.6,1539.3,537.1z"/>
	</g>
	<line class="st15" x1="1497.2" y1="398.4" x2="1513.7" y2="384.5"/>
	<line class="st15" x1="1408" y1="505.7" x2="1395.3" y2="516"/>
	<line class="st15" x1="1385.9" y1="400.5" x2="1372.7" y2="389.9"/>
	<line class="st15" x1="1460.6" y1="381.4" x2="1463.1" y2="362.7"/>
	<line class="st15" x1="1376.6" y1="442.4" x2="1356.2" y2="443.5"/>
	<line class="st15" x1="1423.1" y1="381.6" x2="1416.5" y2="362.6"/>
	<line class="st15" x1="1379.9" y1="477.4" x2="1365.5" y2="483.9"/>
	<line class="st15" x1="1438.9" y1="519.9" x2="1432.2" y2="539.8"/>
</g>
<path class="st16" d="M466.3,274.5c-0.3,2.4-1.2,4.8-2.5,6.8c-0.5,0.7-0.9,1.4-1.5,2c-1,1.3-2.3,2.4-3.6,3.4c-4,3-8.9,4.5-13.9,4.5
	c-0.7,0-1.4,0-2-0.1c-4.2-0.4-8.4-1.9-11.8-4.5c-2-1.5-3.7-3.3-5-5.4s-2.3-4.4-2.5-6.8c0-0.2,0.1-0.3,0.3-0.3h0.1h0.1
	c0.7,0.2,1.3,0.4,1.9,0.6l1.7,0.5c1.1,0.3,2.1,0.6,3.1,0.8c0.5,0.1,0.9,0.2,1.4,0.3c0.5,0.1,0.9,0.2,1.4,0.2
	c0.9,0.1,1.7,0.2,2.6,0.3c3.3,0.3,6.1,0.4,9,0.4s5.7-0.1,9-0.4c0.8-0.1,1.7-0.2,2.6-0.3c0.5,0,0.9-0.2,1.4-0.2
	c0.5-0.1,0.9-0.2,1.4-0.3c1-0.2,2-0.5,3.1-0.8l1.7-0.5c0.6-0.2,1.2-0.4,1.9-0.6h0.1c0.2,0,0.3,0.1,0.3,0.2
	C466.3,274.4,466.3,274.4,466.3,274.5z"/>
<g>
	<g>
		<path class="st17" d="M447,292.3L447,292.3c-5.3,0.7-10.8-0.4-15.3-3.1c-2.4-1.4-4.4-3.2-6.1-5.2c-1.9-2.3-3.1-4.7-3.6-7.2
			c-0.1-0.6,0.2-1.1,0.7-1.2c0.1,0,0.3,0,0.4,0h0.1c0.5,0.1,0.9,0.2,1.3,0.3c0.2,0.1,0.5,0.1,0.7,0.1l1.8,0.3
			c1.3,0.2,2.2,0.3,3.2,0.4c0.2,0,0.4,0,0.6,0.1c0.3,0,0.5,0.1,0.8,0.1s0.5,0,0.7,0s0.5,0,0.7,0l0,0h0.6c0.7,0,1.4,0,2,0
			c3.6-0.1,6.5-0.4,9.2-0.7c2.7-0.3,5.6-0.8,9.1-1.6c0.6-0.1,1.3-0.3,2-0.5l0.6-0.2c0.2,0,0.4-0.1,0.7-0.2c0.2-0.1,0.4-0.1,0.7-0.2
			c0.3-0.1,0.5-0.2,0.8-0.2c0.2-0.1,0.4-0.1,0.6-0.2c0.9-0.3,1.8-0.7,3-1.2l1.7-0.8c0.2-0.1,0.4-0.2,0.7-0.3
			c0.4-0.2,0.8-0.4,1.2-0.6h0.1c0.3-0.1,0.5-0.1,0.8,0s0.5,0.3,0.6,0.6c0,0.1,0.1,0.2,0.1,0.4c0.1,2.5-0.5,5.2-1.8,7.9
			c-1.1,2.4-2.7,4.6-4.6,6.5C457.3,289.2,452.3,291.6,447,292.3z M446.8,290.8L446.8,290.8c5-0.6,9.7-2.9,13.2-6.4
			c1.8-1.8,3.3-3.9,4.3-6.1c1-2.3,1.6-4.5,1.6-6.6c-0.2,0.1-0.4,0.2-0.6,0.3c-0.2,0.1-0.5,0.2-0.7,0.3l-1.7,0.8
			c-1.2,0.5-2.2,0.9-3.1,1.2l0,0c-0.2,0.1-0.4,0.1-0.5,0.2c-0.3,0.1-0.6,0.2-0.9,0.3c-0.2,0-0.4,0.1-0.6,0.2
			c-0.3,0.1-0.5,0.2-0.8,0.2l-0.6,0.1c-0.7,0.2-1.4,0.4-2,0.5c-3.5,0.8-6.5,1.2-9.2,1.6c-2.7,0.3-5.7,0.6-9.3,0.7
			c-0.7,0-1.4,0-2.1,0h-0.6c-0.3,0-0.6,0-0.8,0c-0.2,0-0.4,0-0.6,0c-0.3,0-0.7,0-1-0.1c-0.2,0-0.4,0-0.6,0l0,0
			c-1-0.1-2.1-0.2-3.3-0.4l0,0l-1.8-0.3c-0.3,0-0.5-0.1-0.8-0.2c-0.2,0-0.5-0.1-0.7-0.1c0.6,2,1.6,4,3.2,6c1.5,1.9,3.5,3.5,5.7,4.9
			C436.7,290.4,441.8,291.4,446.8,290.8L446.8,290.8z"/>
	</g>
	<path class="st17" d="M419.5,278.8c-0.2-0.8,0-1.6,0.3-2.3c0.3-0.7,0.8-1.4,1.4-1.9s1.4-0.8,2.1-0.8c0.4-0.1,0.7,0,1.1,0
		c0.4,0.1,0.7,0.2,1,0.3c0.2,0.1,0.2,0.2,0.2,0.4c0,0.1-0.1,0.1-0.2,0.2l0,0c-0.3,0.1-0.6,0.2-0.9,0.3c-0.3,0.1-0.6,0.2-0.8,0.3
		c-0.5,0.2-1,0.5-1.4,0.8s-0.8,0.7-1.1,1.1c-0.4,0.4-0.7,1-1,1.5l0,0c-0.1,0.1-0.3,0.2-0.4,0.1C419.5,278.9,419.5,278.9,419.5,278.8
		z"/>
	<path class="st17" d="M469.8,272.6c-0.5-0.5-0.9-0.9-1.4-1.2c-0.5-0.3-0.9-0.6-1.4-0.8c-0.5-0.2-1-0.4-1.6-0.4
		c-0.3-0.1-0.6-0.1-0.9-0.1s-0.6,0-1-0.1l0,0c-0.2,0-0.3-0.2-0.2-0.4c0-0.1,0.1-0.2,0.1-0.2c0.3-0.2,0.6-0.4,0.9-0.5s0.7-0.3,1-0.3
		c0.7-0.1,1.5,0,2.2,0.3s1.4,0.8,1.8,1.5c0.5,0.6,0.8,1.4,0.8,2.2c0,0.2-0.1,0.3-0.3,0.3C469.9,272.7,469.9,272.7,469.8,272.6
		L469.8,272.6z"/>
</g>
</svg>
